# MagicaVoxel @ Ephtracy

# group
g boy_jam

# material
mtllib boy_jam.mtl
usemtl palette

# normals
vn -1 0 0
vn 1 0 0
vn 0 0 1
vn 0 0 -1
vn 0 -1 0
vn 0 1 0

# texcoords
vt 0.0332031 0.5
vt 0.0917969 0.5
vt 0.853516 0.5
vt 0.869141 0.5
vt 0.974609 0.5
vt 0.990234 0.5
vt 0.994141 0.5

# verts
v -12 18 7
v -12 18 4
v -12 20 7
v -12 20 4
v -10 17 7
v -10 17 4
v -10 18 7
v -10 18 4
v -4 24 6
v -4 24 4
v -4 26 9
v -4 26 6
v -4 26 4
v -4 26 2
v -4 29 9
v -4 29 2
v -3 0 9
v -3 0 5
v -3 1 9
v -3 1 8
v -3 1 7
v -3 2 8
v -3 2 7
v -3 2 5
v -3 7 7
v -3 7 5
v -3 10 5
v -3 10 4
v -3 13 7
v -3 13 4
v -3 17 7
v -3 17 4
v -3 22 8
v -3 22 3
v -3 24 6
v -3 24 4
v -3 24 3
v -3 24 2
v -3 26 8
v -3 26 6
v -3 26 4
v -3 26 3
v -3 26 2
v -3 29 9
v -3 29 2
v -3 30 9
v -3 30 2
v -2 21 8
v -2 21 4
v -2 22 8
v -2 22 4
v -1 20 7
v -1 20 4
v -1 21 7
v -1 21 4
v -1 21 3
v -1 22 4
v -1 22 3
v -1 23 3
v -1 23 2
v -1 24 3
v -1 24 2
v -1 27 9
v -1 27 8
v -1 28 9
v -1 28 8
v 1 27 9
v 1 27 8
v 1 28 9
v 1 28 8
v 2 0 9
v 2 0 5
v 2 1 9
v 2 1 8
v 2 1 7
v 2 2 8
v 2 2 7
v 2 2 5
v 2 7 7
v 2 7 5
v 2 10 7
v 2 10 5
v 3 27 9
v 3 27 8
v 3 28 9
v 3 28 8
v 4 26 9
v 4 26 8
v 4 27 9
v 4 27 8
v -3 26 9
v -3 26 8
v -3 27 9
v -3 27 8
v -2 27 9
v -2 27 8
v -2 28 9
v -2 28 8
v -1 0 9
v -1 0 5
v -1 1 9
v -1 1 8
v -1 1 7
v -1 2 8
v -1 2 7
v -1 2 5
v -1 7 7
v -1 7 5
v -1 10 7
v -1 10 5
v 0 27 9
v 0 27 8
v 0 28 9
v 0 28 8
v 2 20 7
v 2 20 4
v 2 21 7
v 2 21 4
v 2 21 3
v 2 22 4
v 2 22 3
v 2 23 3
v 2 23 2
v 2 24 3
v 2 24 2
v 2 27 9
v 2 27 8
v 2 28 9
v 2 28 8
v 3 21 8
v 3 21 4
v 3 22 8
v 3 22 4
v 4 0 9
v 4 0 5
v 4 1 9
v 4 1 8
v 4 1 7
v 4 2 8
v 4 2 7
v 4 2 5
v 4 7 7
v 4 7 5
v 4 10 5
v 4 10 4
v 4 13 7
v 4 13 4
v 4 17 7
v 4 17 4
v 4 22 8
v 4 22 3
v 4 24 6
v 4 24 4
v 4 24 3
v 4 24 2
v 4 26 8
v 4 26 6
v 4 26 4
v 4 26 3
v 4 26 2
v 4 29 9
v 4 29 2
v 4 30 9
v 4 30 2
v 5 24 6
v 5 24 4
v 5 26 9
v 5 26 6
v 5 26 4
v 5 26 2
v 5 29 9
v 5 29 2
v 11 17 7
v 11 17 4
v 11 18 7
v 11 18 4
v 13 18 7
v 13 18 4
v 13 20 7
v 13 20 4
v -4 26 9
v -4 29 9
v -3 0 9
v -3 1 9
v -3 26 9
v -3 27 9
v -3 29 9
v -3 30 9
v -2 27 9
v -2 28 9
v -1 0 9
v -1 1 9
v -1 27 9
v -1 28 9
v 0 27 9
v 0 28 9
v 1 27 9
v 1 28 9
v 2 0 9
v 2 1 9
v 2 27 9
v 2 28 9
v 3 27 9
v 3 28 9
v 4 0 9
v 4 1 9
v 4 26 9
v 4 27 9
v 4 29 9
v 4 30 9
v 5 26 9
v 5 29 9
v -3 1 8
v -3 2 8
v -3 22 8
v -3 26 8
v -3 27 8
v -2 21 8
v -2 22 8
v -2 25 8
v -2 27 8
v -2 28 8
v -1 1 8
v -1 2 8
v -1 25 8
v -1 27 8
v -1 28 8
v 0 24 8
v 0 25 8
v 0 27 8
v 0 28 8
v 1 24 8
v 1 25 8
v 1 27 8
v 1 28 8
v 2 1 8
v 2 2 8
v 2 25 8
v 2 27 8
v 2 28 8
v 3 21 8
v 3 22 8
v 3 25 8
v 3 27 8
v 3 28 8
v 4 1 8
v 4 2 8
v 4 22 8
v 4 26 8
v 4 27 8
v -12 18 7
v -12 20 7
v -10 17 7
v -10 18 7
v -6 17 7
v -6 20 7
v -3 2 7
v -3 7 7
v -3 13 7
v -3 17 7
v -2 15 7
v -2 16 7
v -1 2 7
v -1 7 7
v -1 10 7
v -1 16 7
v -1 17 7
v -1 20 7
v -1 21 7
v 0 17 7
v 0 18 7
v 1 17 7
v 1 18 7
v 2 2 7
v 2 7 7
v 2 10 7
v 2 16 7
v 2 17 7
v 2 20 7
v 2 21 7
v 3 15 7
v 3 16 7
v 4 2 7
v 4 7 7
v 4 13 7
v 4 17 7
v 7 17 7
v 7 20 7
v 11 17 7
v 11 18 7
v 13 18 7
v 13 20 7
v -4 24 6
v -4 26 6
v -3 24 6
v -3 26 6
v 4 24 6
v 4 26 6
v 5 24 6
v 5 26 6
v -3 0 5
v -3 2 5
v -3 7 5
v -3 10 5
v -1 0 5
v -1 2 5
v -1 7 5
v -1 10 5
v 2 0 5
v 2 2 5
v 2 7 5
v 2 10 5
v 4 0 5
v 4 2 5
v 4 7 5
v 4 10 5
v -12 18 4
v -12 20 4
v -10 17 4
v -10 18 4
v -6 17 4
v -6 20 4
v -4 24 4
v -4 26 4
v -3 10 4
v -3 13 4
v -3 17 4
v -3 24 4
v -3 26 4
v -2 21 4
v -2 22 4
v -1 20 4
v -1 21 4
v -1 22 4
v 2 20 4
v 2 21 4
v 2 22 4
v 3 21 4
v 3 22 4
v 4 10 4
v 4 13 4
v 4 17 4
v 4 24 4
v 4 26 4
v 5 24 4
v 5 26 4
v 7 17 4
v 7 20 4
v 11 17 4
v 11 18 4
v 13 18 4
v 13 20 4
v -3 22 3
v -3 24 3
v -1 21 3
v -1 22 3
v -1 23 3
v -1 24 3
v 2 21 3
v 2 22 3
v 2 23 3
v 2 24 3
v 4 22 3
v 4 24 3
v -4 26 2
v -4 29 2
v -3 24 2
v -3 26 2
v -3 29 2
v -3 30 2
v -1 23 2
v -1 24 2
v 2 23 2
v 2 24 2
v 4 24 2
v 4 26 2
v 4 29 2
v 4 30 2
v 5 26 2
v 5 29 2
v -3 0 9
v -1 0 9
v 2 0 9
v 4 0 9
v -3 0 5
v -1 0 5
v 2 0 5
v 4 0 5
v -1 10 7
v 2 10 7
v -3 10 5
v -1 10 5
v 2 10 5
v 4 10 5
v -3 10 4
v 4 10 4
v -10 17 7
v -6 17 7
v -3 17 7
v 4 17 7
v 7 17 7
v 11 17 7
v -10 17 4
v -6 17 4
v -3 17 4
v 4 17 4
v 7 17 4
v 11 17 4
v -12 18 7
v -10 18 7
v 11 18 7
v 13 18 7
v -12 18 4
v -10 18 4
v 11 18 4
v 13 18 4
v -2 21 8
v 3 21 8
v -1 21 7
v 2 21 7
v -2 21 4
v -1 21 4
v 2 21 4
v 3 21 4
v -1 21 3
v 2 21 3
v -3 22 8
v -2 22 8
v 3 22 8
v 4 22 8
v -2 22 4
v -1 22 4
v 2 22 4
v 3 22 4
v -3 22 3
v -1 22 3
v 2 22 3
v 4 22 3
v -1 23 3
v 2 23 3
v -1 23 2
v 2 23 2
v -4 24 6
v -3 24 6
v 4 24 6
v 5 24 6
v -4 24 4
v -3 24 4
v 4 24 4
v 5 24 4
v -3 24 3
v -1 24 3
v 2 24 3
v 4 24 3
v -3 24 2
v -1 24 2
v 2 24 2
v 4 24 2
v -4 26 9
v -3 26 9
v 4 26 9
v 5 26 9
v -3 26 8
v 4 26 8
v -4 26 6
v -3 26 6
v 4 26 6
v 5 26 6
v -4 26 4
v -3 26 4
v 4 26 4
v 5 26 4
v -3 26 3
v 4 26 3
v -4 26 2
v -3 26 2
v 4 26 2
v 5 26 2
v -3 27 9
v -2 27 9
v -1 27 9
v 0 27 9
v 1 27 9
v 2 27 9
v 3 27 9
v 4 27 9
v -3 27 8
v -2 27 8
v -1 27 8
v 0 27 8
v 1 27 8
v 2 27 8
v 3 27 8
v 4 27 8
v -2 28 9
v -1 28 9
v 0 28 9
v 1 28 9
v 2 28 9
v 3 28 9
v -2 28 8
v -1 28 8
v 0 28 8
v 1 28 8
v 2 28 8
v 3 28 8
v -3 1 9
v -1 1 9
v 2 1 9
v 4 1 9
v -3 1 8
v -1 1 8
v 2 1 8
v 4 1 8
v -3 2 8
v -1 2 8
v 2 2 8
v 4 2 8
v -3 2 7
v -1 2 7
v 2 2 7
v 4 2 7
v -12 20 7
v -6 20 7
v -1 20 7
v 2 20 7
v 7 20 7
v 13 20 7
v -12 20 4
v -6 20 4
v -1 20 4
v 2 20 4
v 7 20 4
v 13 20 4
v -4 29 9
v -3 29 9
v 4 29 9
v 5 29 9
v -4 29 2
v -3 29 2
v 4 29 2
v 5 29 2
v -3 30 9
v 4 30 9
v -3 30 2
v 4 30 2

# faces
f 3/1/1 2/1/1 1/1/1
f 4/1/1 2/1/1 3/1/1
f 7/1/1 6/1/1 5/1/1
f 8/1/1 6/1/1 7/1/1
f 12/1/1 10/1/1 9/1/1
f 13/1/1 10/1/1 12/1/1
f 15/4/1 12/4/1 11/4/1
f 15/4/1 14/4/1 13/4/1
f 15/4/1 13/4/1 12/4/1
f 16/4/1 14/4/1 15/4/1
f 19/4/1 18/4/1 17/4/1
f 20/4/1 18/4/1 19/4/1
f 21/4/1 18/4/1 20/4/1
f 22/7/1 21/7/1 20/7/1
f 23/4/1 18/4/1 21/4/1
f 23/7/1 21/7/1 22/7/1
f 24/4/1 18/4/1 23/4/1
f 25/1/1 24/1/1 23/1/1
f 26/1/1 24/1/1 25/1/1
f 27/2/1 26/2/1 25/2/1
f 29/2/1 27/2/1 25/2/1
f 29/2/1 28/2/1 27/2/1
f 30/2/1 28/2/1 29/2/1
f 31/5/1 30/5/1 29/5/1
f 32/5/1 30/5/1 31/5/1
f 35/1/1 34/1/1 33/1/1
f 36/1/1 34/1/1 35/1/1
f 37/1/1 34/1/1 36/1/1
f 39/1/1 35/1/1 33/1/1
f 40/1/1 35/1/1 39/1/1
f 41/1/1 37/1/1 36/1/1
f 42/4/1 38/4/1 37/4/1
f 42/1/1 37/1/1 41/1/1
f 43/4/1 38/4/1 42/4/1
f 46/4/1 45/4/1 44/4/1
f 47/4/1 45/4/1 46/4/1
f 50/1/1 49/1/1 48/1/1
f 51/1/1 49/1/1 50/1/1
f 54/1/1 53/1/1 52/1/1
f 55/1/1 53/1/1 54/1/1
f 57/1/1 56/1/1 55/1/1
f 58/1/1 56/1/1 57/1/1
f 61/4/1 60/4/1 59/4/1
f 62/4/1 60/4/1 61/4/1
f 65/4/1 64/4/1 63/4/1
f 66/4/1 64/4/1 65/4/1
f 69/4/1 68/4/1 67/4/1
f 70/4/1 68/4/1 69/4/1
f 73/4/1 72/4/1 71/4/1
f 74/4/1 72/4/1 73/4/1
f 75/4/1 72/4/1 74/4/1
f 76/7/1 75/7/1 74/7/1
f 77/4/1 72/4/1 75/4/1
f 77/7/1 75/7/1 76/7/1
f 78/4/1 72/4/1 77/4/1
f 79/1/1 78/1/1 77/1/1
f 80/1/1 78/1/1 79/1/1
f 81/2/1 80/2/1 79/2/1
f 82/2/1 80/2/1 81/2/1
f 85/4/1 84/4/1 83/4/1
f 86/4/1 84/4/1 85/4/1
f 89/4/1 88/4/1 87/4/1
f 90/4/1 88/4/1 89/4/1
f 91/4/2 92/4/2 93/4/2
f 93/4/2 92/4/2 94/4/2
f 95/4/2 96/4/2 97/4/2
f 97/4/2 96/4/2 98/4/2
f 99/4/2 100/4/2 101/4/2
f 101/4/2 100/4/2 102/4/2
f 102/4/2 100/4/2 103/4/2
f 102/7/2 103/7/2 104/7/2
f 103/4/2 100/4/2 105/4/2
f 104/7/2 103/7/2 105/7/2
f 105/4/2 100/4/2 106/4/2
f 105/1/2 106/1/2 107/1/2
f 107/1/2 106/1/2 108/1/2
f 107/2/2 108/2/2 109/2/2
f 109/2/2 108/2/2 110/2/2
f 111/4/2 112/4/2 113/4/2
f 113/4/2 112/4/2 114/4/2
f 115/1/2 116/1/2 117/1/2
f 117/1/2 116/1/2 118/1/2
f 118/1/2 119/1/2 120/1/2
f 120/1/2 119/1/2 121/1/2
f 122/4/2 123/4/2 124/4/2
f 124/4/2 123/4/2 125/4/2
f 126/4/2 127/4/2 128/4/2
f 128/4/2 127/4/2 129/4/2
f 130/1/2 131/1/2 132/1/2
f 132/1/2 131/1/2 133/1/2
f 134/4/2 135/4/2 136/4/2
f 136/4/2 135/4/2 137/4/2
f 137/4/2 135/4/2 138/4/2
f 137/7/2 138/7/2 139/7/2
f 138/4/2 135/4/2 140/4/2
f 139/7/2 138/7/2 140/7/2
f 140/4/2 135/4/2 141/4/2
f 140/1/2 141/1/2 142/1/2
f 142/1/2 141/1/2 143/1/2
f 142/2/2 143/2/2 144/2/2
f 142/2/2 144/2/2 146/2/2
f 144/2/2 145/2/2 146/2/2
f 146/2/2 145/2/2 147/2/2
f 146/5/2 147/5/2 148/5/2
f 148/5/2 147/5/2 149/5/2
f 150/1/2 151/1/2 152/1/2
f 152/1/2 151/1/2 153/1/2
f 153/1/2 151/1/2 154/1/2
f 150/1/2 152/1/2 156/1/2
f 156/1/2 152/1/2 157/1/2
f 153/1/2 154/1/2 158/1/2
f 154/4/2 155/4/2 159/4/2
f 158/1/2 154/1/2 159/1/2
f 159/4/2 155/4/2 160/4/2
f 161/4/2 162/4/2 163/4/2
f 163/4/2 162/4/2 164/4/2
f 165/1/2 166/1/2 168/1/2
f 168/1/2 166/1/2 169/1/2
f 167/4/2 168/4/2 171/4/2
f 169/4/2 170/4/2 171/4/2
f 168/4/2 169/4/2 171/4/2
f 171/4/2 170/4/2 172/4/2
f 173/1/2 174/1/2 175/1/2
f 175/1/2 174/1/2 176/1/2
f 177/1/2 178/1/2 179/1/2
f 179/1/2 178/1/2 180/1/2
f 185/4/3 182/4/3 181/4/3
f 186/4/3 182/4/3 185/4/3
f 187/4/3 182/4/3 186/4/3
f 189/4/3 188/4/3 187/4/3
f 189/4/3 187/4/3 186/4/3
f 190/4/3 188/4/3 189/4/3
f 191/4/3 184/4/3 183/4/3
f 192/4/3 184/4/3 191/4/3
f 194/4/3 188/4/3 190/4/3
f 195/4/3 194/4/3 193/4/3
f 196/4/3 188/4/3 194/4/3
f 196/4/3 194/4/3 195/4/3
f 198/4/3 188/4/3 196/4/3
f 201/4/3 198/4/3 197/4/3
f 202/4/3 188/4/3 198/4/3
f 202/4/3 198/4/3 201/4/3
f 204/4/3 188/4/3 202/4/3
f 205/4/3 200/4/3 199/4/3
f 206/4/3 200/4/3 205/4/3
f 208/4/3 204/4/3 203/4/3
f 209/4/3 188/4/3 204/4/3
f 209/4/3 204/4/3 208/4/3
f 210/4/3 188/4/3 209/4/3
f 211/4/3 208/4/3 207/4/3
f 211/4/3 209/4/3 208/4/3
f 212/4/3 209/4/3 211/4/3
f 219/1/3 216/1/3 215/1/3
f 219/1/3 217/1/3 216/1/3
f 220/1/3 217/1/3 219/1/3
f 221/1/3 217/1/3 220/1/3
f 223/7/3 214/7/3 213/7/3
f 224/7/3 214/7/3 223/7/3
f 225/1/3 219/1/3 218/1/3
f 225/1/3 220/1/3 219/1/3
f 225/6/3 221/6/3 220/6/3
f 226/1/3 222/1/3 221/1/3
f 226/6/3 221/6/3 225/6/3
f 227/1/3 222/1/3 226/1/3
f 228/1/3 225/1/3 218/1/3
f 228/1/3 226/1/3 225/1/3
f 229/1/3 226/1/3 228/1/3
f 230/1/3 226/1/3 229/1/3
f 232/1/3 228/1/3 218/1/3
f 232/2/3 229/2/3 228/2/3
f 233/1/3 231/1/3 230/1/3
f 233/2/3 229/2/3 232/2/3
f 233/1/3 230/1/3 229/1/3
f 234/1/3 231/1/3 233/1/3
f 235/1/3 231/1/3 234/1/3
f 238/1/3 233/1/3 232/1/3
f 238/1/3 234/1/3 233/1/3
f 239/1/3 234/1/3 238/1/3
f 241/1/3 232/1/3 218/1/3
f 241/1/3 238/1/3 232/1/3
f 242/1/3 238/1/3 241/1/3
f 243/6/3 239/6/3 238/6/3
f 243/1/3 238/1/3 242/1/3
f 244/1/3 240/1/3 239/1/3
f 244/6/3 239/6/3 243/6/3
f 245/1/3 240/1/3 244/1/3
f 246/7/3 237/7/3 236/7/3
f 247/7/3 237/7/3 246/7/3
f 248/1/3 243/1/3 242/1/3
f 248/1/3 244/1/3 243/1/3
f 249/1/3 244/1/3 248/1/3
f 250/1/3 244/1/3 249/1/3
f 254/1/3 252/1/3 251/1/3
f 255/1/3 254/1/3 253/1/3
f 256/1/3 252/1/3 254/1/3
f 256/1/3 254/1/3 255/1/3
f 260/5/3 256/5/3 255/5/3
f 261/5/3 260/5/3 259/5/3
f 262/5/3 260/5/3 261/5/3
f 263/1/3 258/1/3 257/1/3
f 264/2/3 259/2/3 258/2/3
f 264/1/3 258/1/3 263/1/3
f 265/2/3 259/2/3 264/2/3
f 266/5/3 260/5/3 262/5/3
f 266/3/3 262/3/3 261/3/3
f 267/5/3 256/5/3 260/5/3
f 267/5/3 260/5/3 266/5/3
f 268/5/3 256/5/3 267/5/3
f 270/5/3 268/5/3 267/5/3
f 270/3/3 267/3/3 266/3/3
f 271/5/3 268/5/3 270/5/3
f 272/3/3 270/3/3 266/3/3
f 272/3/3 271/3/3 270/3/3
f 273/5/3 268/5/3 271/5/3
f 273/3/3 271/3/3 272/3/3
f 276/2/3 259/2/3 265/2/3
f 277/3/3 266/3/3 261/3/3
f 277/3/3 272/3/3 266/3/3
f 278/5/3 273/5/3 272/5/3
f 278/3/3 272/3/3 277/3/3
f 279/1/3 269/1/3 268/1/3
f 279/5/3 273/5/3 278/5/3
f 279/5/3 268/5/3 273/5/3
f 280/1/3 269/1/3 279/1/3
f 281/5/3 261/5/3 259/5/3
f 281/3/3 277/3/3 261/3/3
f 282/5/3 278/5/3 277/5/3
f 282/3/3 277/3/3 281/3/3
f 282/5/3 279/5/3 278/5/3
f 283/1/3 275/1/3 274/1/3
f 284/2/3 276/2/3 275/2/3
f 284/1/3 275/1/3 283/1/3
f 285/5/3 281/5/3 259/5/3
f 285/2/3 276/2/3 284/2/3
f 285/2/3 259/2/3 276/2/3
f 285/5/3 282/5/3 281/5/3
f 286/5/3 279/5/3 282/5/3
f 286/5/3 282/5/3 285/5/3
f 287/5/3 279/5/3 286/5/3
f 288/5/3 279/5/3 287/5/3
f 289/1/3 288/1/3 287/1/3
f 290/1/3 288/1/3 289/1/3
f 291/1/3 288/1/3 290/1/3
f 292/1/3 288/1/3 291/1/3
f 295/1/3 294/1/3 293/1/3
f 296/1/3 294/1/3 295/1/3
f 299/1/3 298/1/3 297/1/3
f 300/1/3 298/1/3 299/1/3
f 301/4/4 302/4/4 305/4/4
f 302/1/4 303/1/4 306/1/4
f 305/4/4 302/4/4 306/4/4
f 303/2/4 304/2/4 307/2/4
f 306/1/4 303/1/4 307/1/4
f 307/2/4 304/2/4 308/2/4
f 309/4/4 310/4/4 313/4/4
f 310/1/4 311/1/4 314/1/4
f 313/4/4 310/4/4 314/4/4
f 311/2/4 312/2/4 315/2/4
f 314/1/4 311/1/4 315/1/4
f 315/2/4 312/2/4 316/2/4
f 317/1/4 318/1/4 320/1/4
f 319/1/4 320/1/4 321/1/4
f 320/1/4 318/1/4 322/1/4
f 321/1/4 320/1/4 322/1/4
f 321/5/4 322/5/4 327/5/4
f 323/1/4 324/1/4 328/1/4
f 328/1/4 324/1/4 329/1/4
f 326/5/4 327/5/4 332/5/4
f 327/5/4 322/5/4 332/5/4
f 330/1/4 331/1/4 333/1/4
f 333/1/4 331/1/4 334/1/4
f 326/5/4 332/5/4 335/5/4
f 332/1/4 333/1/4 335/1/4
f 335/1/4 333/1/4 336/1/4
f 336/1/4 337/1/4 338/1/4
f 338/1/4 337/1/4 339/1/4
f 325/2/4 326/2/4 340/2/4
f 326/5/4 335/5/4 341/5/4
f 340/2/4 326/2/4 341/2/4
f 341/5/4 335/5/4 342/5/4
f 343/1/4 344/1/4 345/1/4
f 345/1/4 344/1/4 346/1/4
f 342/5/4 335/5/4 347/5/4
f 347/5/4 335/5/4 348/5/4
f 347/1/4 348/1/4 349/1/4
f 349/1/4 348/1/4 350/1/4
f 350/1/4 348/1/4 351/1/4
f 351/1/4 348/1/4 352/1/4
f 353/1/4 354/1/4 356/1/4
f 356/1/4 354/1/4 357/1/4
f 357/1/4 354/1/4 358/1/4
f 355/1/4 356/1/4 359/1/4
f 356/1/4 357/1/4 359/1/4
f 359/1/4 357/1/4 360/1/4
f 360/1/4 357/1/4 361/1/4
f 361/1/4 362/1/4 363/1/4
f 360/1/4 361/1/4 363/1/4
f 363/1/4 362/1/4 364/1/4
f 365/4/4 366/4/4 368/4/4
f 368/4/4 366/4/4 369/4/4
f 367/4/4 368/4/4 372/4/4
f 369/4/4 370/4/4 372/4/4
f 368/4/4 369/4/4 372/4/4
f 371/4/4 372/4/4 373/4/4
f 372/4/4 370/4/4 374/4/4
f 373/4/4 372/4/4 374/4/4
f 374/4/4 370/4/4 375/4/4
f 375/4/4 370/4/4 376/4/4
f 376/4/4 370/4/4 377/4/4
f 377/4/4 370/4/4 378/4/4
f 376/4/4 377/4/4 379/4/4
f 379/4/4 377/4/4 380/4/4
f 385/4/5 382/4/5 381/4/5
f 386/4/5 382/4/5 385/4/5
f 387/4/5 384/4/5 383/4/5
f 388/4/5 384/4/5 387/4/5
f 392/2/5 390/2/5 389/2/5
f 393/2/5 390/2/5 392/2/5
f 395/2/5 392/2/5 391/2/5
f 395/2/5 394/2/5 393/2/5
f 395/2/5 393/2/5 392/2/5
f 396/2/5 394/2/5 395/2/5
f 403/1/5 398/1/5 397/1/5
f 404/5/5 399/5/5 398/5/5
f 404/1/5 398/1/5 403/1/5
f 405/5/5 399/5/5 404/5/5
f 406/5/5 401/5/5 400/5/5
f 407/1/5 402/1/5 401/1/5
f 407/5/5 401/5/5 406/5/5
f 408/1/5 402/1/5 407/1/5
f 413/1/5 410/1/5 409/1/5
f 414/1/5 410/1/5 413/1/5
f 415/1/5 412/1/5 411/1/5
f 416/1/5 412/1/5 415/1/5
f 419/1/5 418/1/5 417/1/5
f 420/1/5 418/1/5 419/1/5
f 421/1/5 419/1/5 417/1/5
f 422/1/5 419/1/5 421/1/5
f 423/1/5 418/1/5 420/1/5
f 424/1/5 418/1/5 423/1/5
f 425/1/5 423/1/5 422/1/5
f 426/1/5 423/1/5 425/1/5
f 431/1/5 428/1/5 427/1/5
f 434/1/5 430/1/5 429/1/5
f 435/1/5 432/1/5 431/1/5
f 435/1/5 431/1/5 427/1/5
f 436/1/5 432/1/5 435/1/5
f 437/1/5 434/1/5 433/1/5
f 438/1/5 430/1/5 434/1/5
f 438/1/5 434/1/5 437/1/5
f 441/4/5 440/4/5 439/4/5
f 442/4/5 440/4/5 441/4/5
f 447/1/5 444/1/5 443/1/5
f 448/1/5 444/1/5 447/1/5
f 449/1/5 446/1/5 445/1/5
f 450/1/5 446/1/5 449/1/5
f 455/4/5 452/4/5 451/4/5
f 456/4/5 452/4/5 455/4/5
f 457/4/5 454/4/5 453/4/5
f 458/4/5 454/4/5 457/4/5
f 463/4/5 460/4/5 459/4/5
f 464/4/5 462/4/5 461/4/5
f 465/4/5 463/4/5 459/4/5
f 466/4/5 463/4/5 465/4/5
f 467/4/5 462/4/5 464/4/5
f 468/4/5 462/4/5 467/4/5
f 473/4/5 470/4/5 469/4/5
f 474/4/5 472/4/5 471/4/5
f 475/4/5 473/4/5 469/4/5
f 476/4/5 473/4/5 475/4/5
f 477/4/5 472/4/5 474/4/5
f 478/4/5 472/4/5 477/4/5
f 487/4/5 480/4/5 479/4/5
f 488/4/5 480/4/5 487/4/5
f 489/4/5 482/4/5 481/4/5
f 490/4/5 482/4/5 489/4/5
f 491/4/5 484/4/5 483/4/5
f 492/4/5 484/4/5 491/4/5
f 493/4/5 486/4/5 485/4/5
f 494/4/5 486/4/5 493/4/5
f 501/4/5 496/4/5 495/4/5
f 502/4/5 496/4/5 501/4/5
f 503/4/5 498/4/5 497/4/5
f 504/4/5 498/4/5 503/4/5
f 505/4/5 500/4/5 499/4/5
f 506/4/5 500/4/5 505/4/5
f 507/4/6 508/4/6 511/4/6
f 511/4/6 508/4/6 512/4/6
f 509/4/6 510/4/6 513/4/6
f 513/4/6 510/4/6 514/4/6
f 515/7/6 516/7/6 519/7/6
f 519/7/6 516/7/6 520/7/6
f 517/7/6 518/7/6 521/7/6
f 521/7/6 518/7/6 522/7/6
f 523/1/6 524/1/6 529/1/6
f 524/5/6 525/5/6 530/5/6
f 529/1/6 524/1/6 530/1/6
f 530/5/6 525/5/6 531/5/6
f 526/5/6 527/5/6 532/5/6
f 527/1/6 528/1/6 533/1/6
f 532/5/6 527/5/6 533/5/6
f 533/1/6 528/1/6 534/1/6
f 535/4/6 536/4/6 539/4/6
f 539/4/6 536/4/6 540/4/6
f 537/4/6 538/4/6 541/4/6
f 541/4/6 538/4/6 542/4/6
f 543/4/6 544/4/6 545/4/6
f 545/4/6 544/4/6 546/4/6
