# MagicaVoxel @ Ephtracy

# group
g bush1

# material
mtllib bush1.mtl
usemtl palette

# normals
vn -1 0 0
vn 1 0 0
vn 0 0 1
vn 0 0 -1
vn 0 -1 0
vn 0 1 0

# texcoords
vt 0.849609 0.5
vt 0.904297 0.5
vt 0.908203 0.5
vt 0.912109 0.5

# verts
v -10 5 -15
v -10 5 -20
v -10 13 -15
v -10 13 -20
v -9 4 -15
v -9 4 -20
v -9 5 -15
v -9 5 -20
v -9 13 -15
v -9 13 -20
v -9 14 -15
v -9 14 -20
v -8 3 -15
v -8 3 -20
v -8 4 -15
v -8 4 -20
v -8 14 -15
v -8 14 -20
v -8 15 -15
v -8 15 -20
v -7 2 -15
v -7 2 -20
v -7 3 -15
v -7 3 -20
v -6 1 -15
v -6 1 -20
v -6 2 -15
v -6 2 -20
v -6 15 -15
v -6 15 -20
v -6 16 -15
v -6 16 -20
v -4 0 -15
v -4 0 -20
v -4 1 -15
v -4 1 -20
v -4 16 -15
v -4 16 -20
v -4 17 -15
v -4 17 -20
v -1 17 -15
v -1 17 -20
v -1 18 -15
v -1 18 -20
v 5 17 -15
v 5 17 -20
v 5 18 -15
v 5 18 -20
v 6 16 -15
v 6 16 -20
v 6 17 -15
v 6 17 -20
v 8 14 -15
v 8 14 -20
v 8 16 -15
v 8 16 -20
v 9 0 -15
v 9 0 -16
v 9 0 -20
v 9 1 -15
v 9 1 -16
v 9 1 -20
v 9 13 -15
v 9 13 -20
v 9 14 -15
v 9 14 -20
v 10 1 -15
v 10 1 -16
v 10 1 -20
v 10 2 -15
v 10 2 -16
v 10 2 -20
v 10 12 -15
v 10 12 -20
v 10 13 -15
v 10 13 -20
v 11 2 -15
v 11 2 -16
v 11 2 -20
v 11 3 -15
v 11 3 -16
v 11 3 -20
v 11 10 -15
v 11 10 -20
v 11 12 -15
v 11 12 -20
v 12 3 -15
v 12 3 -16
v 12 3 -20
v 12 9 -15
v 12 9 -16
v 12 10 -15
v 12 10 -20
v -10 5 -15
v -10 13 -15
v -9 4 -15
v -9 5 -15
v -9 8 -15
v -9 10 -15
v -9 11 -15
v -9 13 -15
v -9 14 -15
v -8 3 -15
v -8 4 -15
v -8 7 -15
v -8 8 -15
v -8 10 -15
v -8 11 -15
v -8 12 -15
v -8 14 -15
v -8 15 -15
v -7 2 -15
v -7 3 -15
v -7 4 -15
v -7 6 -15
v -7 7 -15
v -7 10 -15
v -7 12 -15
v -7 13 -15
v -6 1 -15
v -6 2 -15
v -6 4 -15
v -6 5 -15
v -6 6 -15
v -6 10 -15
v -6 11 -15
v -6 12 -15
v -6 13 -15
v -6 14 -15
v -6 15 -15
v -6 16 -15
v -5 4 -15
v -5 5 -15
v -5 8 -15
v -5 11 -15
v -5 13 -15
v -5 14 -15
v -5 15 -15
v -4 0 -15
v -4 1 -15
v -4 2 -15
v -4 4 -15
v -4 8 -15
v -4 11 -15
v -4 12 -15
v -4 16 -15
v -4 17 -15
v -3 12 -15
v -3 13 -15
v -2 2 -15
v -2 3 -15
v -2 4 -15
v -2 7 -15
v -2 8 -15
v -2 15 -15
v -2 16 -15
v -1 2 -15
v -1 3 -15
v -1 7 -15
v -1 8 -15
v -1 12 -15
v -1 13 -15
v -1 17 -15
v -1 18 -15
v 0 2 -15
v 0 4 -15
v 0 6 -15
v 0 11 -15
v 0 12 -15
v 0 13 -15
v 0 16 -15
v 0 17 -15
v 1 1 -15
v 1 2 -15
v 1 4 -15
v 1 6 -15
v 1 11 -15
v 1 12 -15
v 1 14 -15
v 1 15 -15
v 2 12 -15
v 2 14 -15
v 2 15 -15
v 2 17 -15
v 3 0 -15
v 3 1 -15
v 3 2 -15
v 5 2 -15
v 5 4 -15
v 5 17 -15
v 5 18 -15
v 6 1 -15
v 6 2 -15
v 6 10 -15
v 6 11 -15
v 6 16 -15
v 6 17 -15
v 7 1 -15
v 7 2 -15
v 7 10 -15
v 7 11 -15
v 8 2 -15
v 8 3 -15
v 8 6 -15
v 8 7 -15
v 8 14 -15
v 8 16 -15
v 9 0 -15
v 9 1 -15
v 9 3 -15
v 9 5 -15
v 9 6 -15
v 9 7 -15
v 9 13 -15
v 9 14 -15
v 10 1 -15
v 10 2 -15
v 10 5 -15
v 10 10 -15
v 10 12 -15
v 10 13 -15
v 11 2 -15
v 11 3 -15
v 11 9 -15
v 11 10 -15
v 11 12 -15
v 12 3 -15
v 12 9 -15
v 12 10 -15
v -10 5 -20
v -10 13 -20
v -9 4 -20
v -9 5 -20
v -9 10 -20
v -9 11 -20
v -9 13 -20
v -9 14 -20
v -8 3 -20
v -8 4 -20
v -8 10 -20
v -8 11 -20
v -8 14 -20
v -8 15 -20
v -7 2 -20
v -7 3 -20
v -6 1 -20
v -6 2 -20
v -6 15 -20
v -6 16 -20
v -5 13 -20
v -5 14 -20
v -4 0 -20
v -4 1 -20
v -4 13 -20
v -4 14 -20
v -4 16 -20
v -4 17 -20
v -2 7 -20
v -2 8 -20
v -2 10 -20
v -2 11 -20
v -1 7 -20
v -1 8 -20
v -1 10 -20
v -1 11 -20
v -1 12 -20
v -1 13 -20
v -1 17 -20
v -1 18 -20
v 0 12 -20
v 0 13 -20
v 5 17 -20
v 5 18 -20
v 6 16 -20
v 6 17 -20
v 8 14 -20
v 8 16 -20
v 9 0 -20
v 9 1 -20
v 9 13 -20
v 9 14 -20
v 10 1 -20
v 10 2 -20
v 10 12 -20
v 10 13 -20
v 11 2 -20
v 11 3 -20
v 11 10 -20
v 11 12 -20
v 12 3 -20
v 12 10 -20
v -4 0 -15
v 3 0 -15
v 9 0 -15
v 3 0 -16
v 9 0 -16
v -4 0 -20
v 9 0 -20
v -6 1 -15
v -4 1 -15
v 9 1 -15
v 10 1 -15
v 9 1 -16
v 10 1 -16
v -6 1 -20
v -4 1 -20
v 9 1 -20
v 10 1 -20
v -7 2 -15
v -6 2 -15
v 10 2 -15
v 11 2 -15
v 10 2 -16
v 11 2 -16
v -7 2 -20
v -6 2 -20
v 10 2 -20
v 11 2 -20
v -8 3 -15
v -7 3 -15
v 11 3 -15
v 12 3 -15
v 11 3 -16
v 12 3 -16
v -8 3 -20
v -7 3 -20
v 11 3 -20
v 12 3 -20
v -9 4 -15
v -8 4 -15
v -9 4 -20
v -8 4 -20
v -10 5 -15
v -9 5 -15
v -10 5 -20
v -9 5 -20
v 11 10 -15
v 12 10 -15
v 11 10 -20
v 12 10 -20
v 10 12 -15
v 11 12 -15
v 10 12 -20
v 11 12 -20
v -10 13 -15
v -9 13 -15
v 9 13 -15
v 10 13 -15
v -10 13 -20
v -9 13 -20
v 9 13 -20
v 10 13 -20
v -9 14 -15
v -8 14 -15
v 8 14 -15
v 9 14 -15
v -9 14 -20
v -8 14 -20
v 8 14 -20
v 9 14 -20
v -8 15 -15
v -6 15 -15
v -8 15 -20
v -6 15 -20
v -6 16 -15
v -4 16 -15
v 6 16 -15
v 8 16 -15
v -6 16 -20
v -4 16 -20
v 6 16 -20
v 8 16 -20
v -4 17 -15
v -1 17 -15
v 5 17 -15
v 6 17 -15
v -4 17 -20
v -1 17 -20
v 5 17 -20
v 6 17 -20
v -1 18 -15
v 5 18 -15
v -1 18 -20
v 5 18 -20

# faces
f 3/3/1 2/3/1 1/3/1
f 4/3/1 2/3/1 3/3/1
f 7/3/1 6/3/1 5/3/1
f 8/3/1 6/3/1 7/3/1
f 11/3/1 10/3/1 9/3/1
f 12/3/1 10/3/1 11/3/1
f 15/3/1 14/3/1 13/3/1
f 16/3/1 14/3/1 15/3/1
f 19/3/1 18/3/1 17/3/1
f 20/3/1 18/3/1 19/3/1
f 23/3/1 22/3/1 21/3/1
f 24/3/1 22/3/1 23/3/1
f 27/3/1 26/3/1 25/3/1
f 28/3/1 26/3/1 27/3/1
f 31/3/1 30/3/1 29/3/1
f 32/3/1 30/3/1 31/3/1
f 35/3/1 34/3/1 33/3/1
f 36/3/1 34/3/1 35/3/1
f 39/3/1 38/3/1 37/3/1
f 40/3/1 38/3/1 39/3/1
f 43/3/1 42/3/1 41/3/1
f 44/3/1 42/3/1 43/3/1
f 45/3/2 46/3/2 47/3/2
f 47/3/2 46/3/2 48/3/2
f 49/3/2 50/3/2 51/3/2
f 51/3/2 50/3/2 52/3/2
f 53/3/2 54/3/2 55/3/2
f 55/3/2 54/3/2 56/3/2
f 57/4/2 58/4/2 60/4/2
f 58/3/2 59/3/2 61/3/2
f 60/4/2 58/4/2 61/4/2
f 61/3/2 59/3/2 62/3/2
f 63/3/2 64/3/2 65/3/2
f 65/3/2 64/3/2 66/3/2
f 67/4/2 68/4/2 70/4/2
f 68/3/2 69/3/2 71/3/2
f 70/4/2 68/4/2 71/4/2
f 71/3/2 69/3/2 72/3/2
f 73/3/2 74/3/2 75/3/2
f 75/3/2 74/3/2 76/3/2
f 77/4/2 78/4/2 80/4/2
f 78/3/2 79/3/2 81/3/2
f 80/4/2 78/4/2 81/4/2
f 81/3/2 79/3/2 82/3/2
f 83/3/2 84/3/2 85/3/2
f 85/3/2 84/3/2 86/3/2
f 87/4/2 88/4/2 90/4/2
f 88/3/2 89/3/2 91/3/2
f 90/4/2 88/4/2 91/4/2
f 90/3/2 91/3/2 92/3/2
f 91/3/2 89/3/2 93/3/2
f 92/3/2 91/3/2 93/3/2
f 97/3/3 95/3/3 94/3/3
f 98/3/3 95/3/3 97/3/3
f 99/3/3 95/3/3 98/3/3
f 100/3/3 95/3/3 99/3/3
f 101/3/3 95/3/3 100/3/3
f 104/3/3 97/3/3 96/3/3
f 104/3/3 98/3/3 97/3/3
f 105/3/3 98/3/3 104/3/3
f 106/2/3 99/2/3 98/2/3
f 106/3/3 98/3/3 105/3/3
f 107/1/3 100/1/3 99/1/3
f 107/2/3 99/2/3 106/2/3
f 108/3/3 102/3/3 101/3/3
f 108/1/3 100/1/3 107/1/3
f 108/3/3 101/3/3 100/3/3
f 109/3/3 102/3/3 108/3/3
f 110/3/3 102/3/3 109/3/3
f 113/3/3 104/3/3 103/3/3
f 113/3/3 105/3/3 104/3/3
f 114/3/3 105/3/3 113/3/3
f 115/3/3 105/3/3 114/3/3
f 116/2/3 107/2/3 106/2/3
f 116/3/3 105/3/3 115/3/3
f 116/2/3 106/2/3 105/2/3
f 116/2/3 108/2/3 107/2/3
f 116/2/3 109/2/3 108/2/3
f 117/2/3 109/2/3 116/2/3
f 118/3/3 111/3/3 110/3/3
f 118/2/3 109/2/3 117/2/3
f 118/3/3 110/3/3 109/3/3
f 119/3/3 111/3/3 118/3/3
f 121/3/3 114/3/3 113/3/3
f 121/3/3 113/3/3 112/3/3
f 122/2/3 115/2/3 114/2/3
f 122/3/3 114/3/3 121/3/3
f 123/2/3 115/2/3 122/2/3
f 124/4/3 117/4/3 116/4/3
f 124/2/3 115/2/3 123/2/3
f 124/4/3 116/4/3 115/4/3
f 125/2/3 118/2/3 117/2/3
f 125/4/3 117/4/3 124/4/3
f 126/2/3 118/2/3 125/2/3
f 127/1/3 119/1/3 118/1/3
f 127/2/3 118/2/3 126/2/3
f 128/3/3 111/3/3 119/3/3
f 128/1/3 119/1/3 127/1/3
f 129/3/3 111/3/3 128/3/3
f 130/3/3 111/3/3 129/3/3
f 132/2/3 123/2/3 122/2/3
f 132/2/3 122/2/3 121/2/3
f 133/4/3 126/4/3 125/4/3
f 133/2/3 123/2/3 132/2/3
f 133/4/3 124/4/3 123/4/3
f 133/4/3 125/4/3 124/4/3
f 134/4/3 126/4/3 133/4/3
f 135/2/3 127/2/3 126/2/3
f 135/4/3 126/4/3 134/4/3
f 135/2/3 129/2/3 128/2/3
f 135/2/3 128/2/3 127/2/3
f 136/2/3 129/2/3 135/2/3
f 137/3/3 131/3/3 130/3/3
f 137/2/3 129/2/3 136/2/3
f 137/3/3 130/3/3 129/3/3
f 138/3/3 131/3/3 137/3/3
f 140/3/3 121/3/3 120/3/3
f 141/2/3 132/2/3 121/2/3
f 141/3/3 121/3/3 140/3/3
f 142/4/3 134/4/3 133/4/3
f 142/2/3 132/2/3 141/2/3
f 142/4/3 133/4/3 132/4/3
f 143/2/3 135/2/3 134/2/3
f 143/4/3 134/4/3 142/4/3
f 144/4/3 136/4/3 135/4/3
f 144/2/3 135/2/3 143/2/3
f 145/4/3 136/4/3 144/4/3
f 146/3/3 131/3/3 138/3/3
f 148/4/3 136/4/3 145/4/3
f 148/2/3 143/2/3 142/2/3
f 148/2/3 142/2/3 141/2/3
f 148/2/3 145/2/3 144/2/3
f 148/2/3 144/2/3 143/2/3
f 148/2/3 141/2/3 140/2/3
f 149/2/3 138/2/3 137/2/3
f 149/4/3 136/4/3 148/4/3
f 149/2/3 137/2/3 136/2/3
f 150/2/3 148/2/3 140/2/3
f 150/2/3 149/2/3 148/2/3
f 151/2/3 149/2/3 150/2/3
f 152/2/3 149/2/3 151/2/3
f 153/2/3 149/2/3 152/2/3
f 154/2/3 149/2/3 153/2/3
f 155/3/3 147/3/3 146/3/3
f 155/2/3 149/2/3 154/2/3
f 155/3/3 146/3/3 138/3/3
f 155/2/3 138/2/3 149/2/3
f 156/3/3 147/3/3 155/3/3
f 157/2/3 150/2/3 140/2/3
f 157/1/3 151/1/3 150/1/3
f 158/4/3 152/4/3 151/4/3
f 158/1/3 151/1/3 157/1/3
f 159/1/3 154/1/3 153/1/3
f 159/2/3 153/2/3 152/2/3
f 160/2/3 156/2/3 155/2/3
f 160/1/3 154/1/3 159/1/3
f 160/2/3 155/2/3 154/2/3
f 161/2/3 156/2/3 160/2/3
f 162/2/3 156/2/3 161/2/3
f 163/3/3 147/3/3 156/3/3
f 165/4/3 158/4/3 157/4/3
f 165/2/3 157/2/3 140/2/3
f 166/4/3 152/4/3 158/4/3
f 166/4/3 158/4/3 165/4/3
f 166/2/3 159/2/3 152/2/3
f 166/2/3 160/2/3 159/2/3
f 166/2/3 161/2/3 160/2/3
f 167/2/3 161/2/3 166/2/3
f 168/2/3 161/2/3 167/2/3
f 169/1/3 162/1/3 161/1/3
f 169/2/3 161/2/3 168/2/3
f 170/2/3 156/2/3 162/2/3
f 170/1/3 162/1/3 169/1/3
f 171/3/3 164/3/3 163/3/3
f 171/2/3 156/2/3 170/2/3
f 171/3/3 163/3/3 156/3/3
f 172/3/3 164/3/3 171/3/3
f 173/2/3 165/2/3 140/2/3
f 173/2/3 167/2/3 166/2/3
f 173/3/3 140/3/3 139/3/3
f 173/2/3 166/2/3 165/2/3
f 174/2/3 167/2/3 173/2/3
f 175/2/3 167/2/3 174/2/3
f 176/3/3 168/3/3 167/3/3
f 176/2/3 167/2/3 175/2/3
f 177/2/3 170/2/3 169/2/3
f 177/3/3 168/3/3 176/3/3
f 177/2/3 172/2/3 171/2/3
f 177/2/3 171/2/3 170/2/3
f 177/2/3 169/2/3 168/2/3
f 178/2/3 172/2/3 177/2/3
f 179/2/3 172/2/3 178/2/3
f 180/2/3 172/2/3 179/2/3
f 181/3/3 176/3/3 175/3/3
f 181/3/3 177/3/3 176/3/3
f 181/3/3 178/3/3 177/3/3
f 181/2/3 179/2/3 178/2/3
f 182/3/3 180/3/3 179/3/3
f 182/2/3 179/2/3 181/2/3
f 183/2/3 172/2/3 180/2/3
f 183/3/3 180/3/3 182/3/3
f 184/3/3 164/3/3 172/3/3
f 184/2/3 172/2/3 183/2/3
f 185/3/3 174/3/3 173/3/3
f 185/3/3 173/3/3 139/3/3
f 186/3/3 174/3/3 185/3/3
f 187/2/3 175/2/3 174/2/3
f 187/3/3 174/3/3 186/3/3
f 188/2/3 187/2/3 186/2/3
f 188/2/3 175/2/3 187/2/3
f 189/3/3 183/3/3 182/3/3
f 189/2/3 175/2/3 188/2/3
f 189/3/3 182/3/3 181/3/3
f 189/3/3 184/3/3 183/3/3
f 189/3/3 181/3/3 175/3/3
f 190/3/3 164/3/3 184/3/3
f 190/3/3 184/3/3 189/3/3
f 191/3/3 164/3/3 190/3/3
f 192/2/3 188/2/3 186/2/3
f 192/4/3 186/4/3 185/4/3
f 193/3/3 189/3/3 188/3/3
f 193/2/3 188/2/3 192/2/3
f 193/3/3 190/3/3 189/3/3
f 194/3/3 190/3/3 193/3/3
f 195/3/3 190/3/3 194/3/3
f 196/3/3 190/3/3 195/3/3
f 197/3/3 190/3/3 196/3/3
f 198/4/3 192/4/3 185/4/3
f 198/3/3 193/3/3 192/3/3
f 198/3/3 194/3/3 193/3/3
f 199/3/3 194/3/3 198/3/3
f 200/1/3 195/1/3 194/1/3
f 200/3/3 194/3/3 199/3/3
f 201/3/3 196/3/3 195/3/3
f 201/1/3 195/1/3 200/1/3
f 202/3/3 200/3/3 199/3/3
f 202/4/3 199/4/3 198/4/3
f 202/3/3 201/3/3 200/3/3
f 203/3/3 201/3/3 202/3/3
f 204/3/3 201/3/3 203/3/3
f 205/3/3 201/3/3 204/3/3
f 206/3/3 196/3/3 201/3/3
f 206/3/3 201/3/3 205/3/3
f 207/3/3 196/3/3 206/3/3
f 208/4/3 198/4/3 185/4/3
f 208/4/3 202/4/3 198/4/3
f 208/4/3 203/4/3 202/4/3
f 209/4/3 203/4/3 208/4/3
f 210/3/3 204/3/3 203/3/3
f 210/4/3 203/4/3 209/4/3
f 211/3/3 204/3/3 210/3/3
f 212/1/3 205/1/3 204/1/3
f 212/3/3 204/3/3 211/3/3
f 213/3/3 206/3/3 205/3/3
f 213/1/3 205/1/3 212/1/3
f 214/3/3 206/3/3 213/3/3
f 215/3/3 206/3/3 214/3/3
f 216/4/3 211/4/3 210/4/3
f 216/4/3 210/4/3 209/4/3
f 217/4/3 211/4/3 216/4/3
f 218/3/3 212/3/3 211/3/3
f 218/4/3 211/4/3 217/4/3
f 218/3/3 214/3/3 213/3/3
f 218/3/3 213/3/3 212/3/3
f 219/3/3 214/3/3 218/3/3
f 220/3/3 214/3/3 219/3/3
f 221/3/3 214/3/3 220/3/3
f 222/4/3 218/4/3 217/4/3
f 222/4/3 219/4/3 218/4/3
f 223/4/3 219/4/3 222/4/3
f 224/4/3 219/4/3 223/4/3
f 225/3/3 220/3/3 219/3/3
f 225/4/3 219/4/3 224/4/3
f 226/3/3 220/3/3 225/3/3
f 227/4/3 224/4/3 223/4/3
f 228/3/3 225/3/3 224/3/3
f 228/4/3 224/4/3 227/4/3
f 229/3/3 225/3/3 228/3/3
f 230/3/4 231/3/4 233/3/4
f 233/3/4 231/3/4 234/3/4
f 234/3/4 231/3/4 235/3/4
f 235/3/4 231/3/4 236/3/4
f 232/3/4 233/3/4 239/3/4
f 233/3/4 234/3/4 239/3/4
f 234/2/4 235/2/4 240/2/4
f 239/3/4 234/3/4 240/3/4
f 236/3/4 237/3/4 241/3/4
f 240/2/4 235/2/4 241/2/4
f 235/3/4 236/3/4 241/3/4
f 241/3/4 237/3/4 242/3/4
f 239/3/4 240/3/4 245/3/4
f 242/3/4 243/3/4 245/3/4
f 241/3/4 242/3/4 245/3/4
f 240/3/4 241/3/4 245/3/4
f 238/3/4 239/3/4 245/3/4
f 244/3/4 245/3/4 247/3/4
f 245/3/4 243/3/4 248/3/4
f 247/3/4 245/3/4 248/3/4
f 246/3/4 247/3/4 250/3/4
f 248/3/4 249/3/4 250/3/4
f 247/3/4 248/3/4 250/3/4
f 250/3/4 249/3/4 251/3/4
f 246/3/4 250/3/4 253/3/4
f 250/2/4 251/2/4 254/2/4
f 253/3/4 250/3/4 254/3/4
f 251/3/4 249/3/4 255/3/4
f 254/2/4 251/2/4 255/2/4
f 255/3/4 249/3/4 256/3/4
f 253/3/4 254/3/4 258/3/4
f 256/3/4 257/3/4 258/3/4
f 255/3/4 256/3/4 258/3/4
f 254/3/4 255/3/4 258/3/4
f 252/3/4 253/3/4 258/3/4
f 258/3/4 257/3/4 259/3/4
f 259/3/4 257/3/4 260/3/4
f 260/3/4 257/3/4 261/3/4
f 252/3/4 258/3/4 262/3/4
f 258/2/4 259/2/4 262/2/4
f 259/3/4 260/3/4 263/3/4
f 262/2/4 259/2/4 263/2/4
f 260/2/4 261/2/4 264/2/4
f 263/3/4 260/3/4 264/3/4
f 261/3/4 257/3/4 265/3/4
f 264/2/4 261/2/4 265/2/4
f 265/3/4 257/3/4 266/3/4
f 266/3/4 257/3/4 267/3/4
f 267/3/4 257/3/4 268/3/4
f 263/3/4 264/3/4 270/3/4
f 262/3/4 263/3/4 270/3/4
f 264/3/4 265/3/4 270/3/4
f 266/2/4 267/2/4 270/2/4
f 265/3/4 266/3/4 270/3/4
f 268/3/4 269/3/4 271/3/4
f 270/2/4 267/2/4 271/2/4
f 267/3/4 268/3/4 271/3/4
f 270/3/4 271/3/4 272/3/4
f 271/3/4 269/3/4 272/3/4
f 272/3/4 269/3/4 273/3/4
f 270/3/4 272/3/4 274/3/4
f 274/3/4 272/3/4 275/3/4
f 270/3/4 274/3/4 276/3/4
f 276/3/4 274/3/4 277/3/4
f 262/3/4 270/3/4 278/3/4
f 252/3/4 262/3/4 278/3/4
f 270/3/4 276/3/4 278/3/4
f 278/3/4 276/3/4 279/3/4
f 279/3/4 276/3/4 280/3/4
f 280/3/4 276/3/4 281/3/4
f 279/3/4 280/3/4 282/3/4
f 282/3/4 280/3/4 283/3/4
f 283/3/4 280/3/4 284/3/4
f 284/3/4 280/3/4 285/3/4
f 283/3/4 284/3/4 286/3/4
f 286/3/4 284/3/4 287/3/4
f 287/3/4 284/3/4 288/3/4
f 288/3/4 284/3/4 289/3/4
f 287/3/4 288/3/4 290/3/4
f 290/3/4 288/3/4 291/3/4
f 295/3/5 293/3/5 292/3/5
f 295/4/5 294/4/5 293/4/5
f 296/4/5 294/4/5 295/4/5
f 297/3/5 295/3/5 292/3/5
f 297/3/5 296/3/5 295/3/5
f 298/3/5 296/3/5 297/3/5
f 303/4/5 302/4/5 301/4/5
f 304/4/5 302/4/5 303/4/5
f 305/3/5 300/3/5 299/3/5
f 306/3/5 300/3/5 305/3/5
f 307/3/5 304/3/5 303/3/5
f 308/3/5 304/3/5 307/3/5
f 313/4/5 312/4/5 311/4/5
f 314/4/5 312/4/5 313/4/5
f 315/3/5 310/3/5 309/3/5
f 316/3/5 310/3/5 315/3/5
f 317/3/5 314/3/5 313/3/5
f 318/3/5 314/3/5 317/3/5
f 323/4/5 322/4/5 321/4/5
f 324/4/5 322/4/5 323/4/5
f 325/3/5 320/3/5 319/3/5
f 326/3/5 320/3/5 325/3/5
f 327/3/5 324/3/5 323/3/5
f 328/3/5 324/3/5 327/3/5
f 331/3/5 330/3/5 329/3/5
f 332/3/5 330/3/5 331/3/5
f 335/3/5 334/3/5 333/3/5
f 336/3/5 334/3/5 335/3/5
f 337/3/6 338/3/6 339/3/6
f 339/3/6 338/3/6 340/3/6
f 341/3/6 342/3/6 343/3/6
f 343/3/6 342/3/6 344/3/6
f 345/3/6 346/3/6 349/3/6
f 349/3/6 346/3/6 350/3/6
f 347/3/6 348/3/6 351/3/6
f 351/3/6 348/3/6 352/3/6
f 353/3/6 354/3/6 357/3/6
f 357/3/6 354/3/6 358/3/6
f 355/3/6 356/3/6 359/3/6
f 359/3/6 356/3/6 360/3/6
f 361/3/6 362/3/6 363/3/6
f 363/3/6 362/3/6 364/3/6
f 365/3/6 366/3/6 369/3/6
f 369/3/6 366/3/6 370/3/6
f 367/3/6 368/3/6 371/3/6
f 371/3/6 368/3/6 372/3/6
f 373/3/6 374/3/6 377/3/6
f 377/3/6 374/3/6 378/3/6
f 375/3/6 376/3/6 379/3/6
f 379/3/6 376/3/6 380/3/6
f 381/3/6 382/3/6 383/3/6
f 383/3/6 382/3/6 384/3/6
