# MagicaVoxel @ Ephtracy

# group
g bush2

# material
mtllib bush2.mtl
usemtl palette

# normals
vn -1 0 0
vn 1 0 0
vn 0 0 1
vn 0 0 -1
vn 0 -1 0
vn 0 1 0

# texcoords
vt 0.0332031 0.5
vt 0.818359 0.5
vt 0.904297 0.5

# verts
v -20 0 -19
v -20 0 -20
v -20 3 -19
v -20 3 -20
v -20 4 -19
v -20 4 -20
v -20 7 -19
v -20 7 -20
v -18 7 -19
v -18 7 -20
v -18 8 -19
v -18 8 -20
v -16 8 -19
v -16 8 -20
v -16 9 -19
v -16 9 -20
v -15 9 -19
v -15 9 -20
v -15 10 -19
v -15 10 -20
v -12 7 -19
v -12 7 -20
v -12 8 -19
v -12 8 -20
v -6 6 -19
v -6 6 -20
v -6 7 -19
v -6 7 -20
v -4 7 -19
v -4 7 -20
v -4 8 -19
v -4 8 -20
v -2 8 -19
v -2 8 -20
v -2 9 -19
v -2 9 -20
v 2 6 -19
v 2 6 -20
v 2 7 -19
v 2 7 -20
v 3 7 -19
v 3 7 -20
v 3 9 -19
v 3 9 -20
v 4 9 -19
v 4 9 -20
v 4 10 -19
v 4 10 -20
v 10 6 -19
v 10 6 -20
v 10 7 -19
v 10 7 -20
v 12 7 -19
v 12 7 -20
v 12 8 -19
v 12 8 -20
v 19 6 -19
v 19 6 -20
v 19 8 -19
v 19 8 -20
v -14 7 -19
v -14 7 -20
v -14 10 -19
v -14 10 -20
v -8 6 -19
v -8 6 -20
v -8 8 -19
v -8 8 -20
v 0 7 -19
v 0 7 -20
v 0 8 -19
v 0 8 -20
v 0 9 -19
v 0 9 -20
v 1 6 -19
v 1 6 -20
v 1 7 -19
v 1 7 -20
v 8 7 -19
v 8 7 -20
v 8 8 -19
v 8 8 -20
v 8 10 -19
v 8 10 -20
v 9 6 -19
v 9 6 -20
v 9 7 -19
v 9 7 -20
v 15 7 -19
v 15 7 -20
v 15 8 -19
v 15 8 -20
v 16 6 -19
v 16 6 -20
v 16 7 -19
v 16 7 -20
v 20 0 -19
v 20 0 -20
v 20 4 -19
v 20 4 -20
v 20 5 -19
v 20 5 -20
v 20 8 -19
v 20 8 -20
v -20 0 -19
v -20 3 -19
v -20 4 -19
v -20 7 -19
v -19 0 -19
v -19 3 -19
v -19 4 -19
v -19 5 -19
v -18 0 -19
v -18 1 -19
v -18 3 -19
v -18 4 -19
v -18 7 -19
v -18 8 -19
v -17 3 -19
v -17 4 -19
v -17 5 -19
v -17 6 -19
v -16 3 -19
v -16 4 -19
v -16 8 -19
v -16 9 -19
v -15 9 -19
v -15 10 -19
v -14 3 -19
v -14 5 -19
v -14 6 -19
v -14 7 -19
v -14 10 -19
v -13 3 -19
v -13 4 -19
v -13 5 -19
v -13 6 -19
v -12 0 -19
v -12 1 -19
v -12 4 -19
v -12 5 -19
v -12 7 -19
v -12 8 -19
v -11 5 -19
v -11 6 -19
v -9 2 -19
v -9 3 -19
v -8 6 -19
v -8 8 -19
v -7 1 -19
v -7 2 -19
v -7 3 -19
v -7 4 -19
v -6 1 -19
v -6 2 -19
v -6 4 -19
v -6 6 -19
v -6 7 -19
v -5 2 -19
v -5 3 -19
v -4 3 -19
v -4 4 -19
v -4 6 -19
v -4 7 -19
v -4 8 -19
v -3 3 -19
v -3 4 -19
v -3 5 -19
v -3 7 -19
v -3 8 -19
v -2 3 -19
v -2 4 -19
v -2 5 -19
v -2 6 -19
v -2 8 -19
v -2 9 -19
v -1 6 -19
v -1 7 -19
v 0 6 -19
v 0 7 -19
v 0 8 -19
v 0 9 -19
v 1 6 -19
v 1 7 -19
v 2 6 -19
v 2 7 -19
v 3 0 -19
v 3 1 -19
v 3 6 -19
v 3 7 -19
v 3 9 -19
v 4 1 -19
v 4 2 -19
v 4 6 -19
v 4 7 -19
v 4 9 -19
v 4 10 -19
v 5 7 -19
v 5 8 -19
v 6 3 -19
v 6 4 -19
v 6 8 -19
v 6 9 -19
v 7 2 -19
v 7 3 -19
v 7 4 -19
v 7 8 -19
v 7 9 -19
v 8 0 -19
v 8 1 -19
v 8 3 -19
v 8 4 -19
v 8 7 -19
v 8 8 -19
v 8 10 -19
v 9 2 -19
v 9 4 -19
v 9 6 -19
v 9 7 -19
v 10 1 -19
v 10 2 -19
v 10 6 -19
v 10 7 -19
v 12 5 -19
v 12 7 -19
v 12 8 -19
v 13 3 -19
v 13 4 -19
v 14 3 -19
v 14 4 -19
v 15 6 -19
v 15 7 -19
v 15 8 -19
v 16 0 -19
v 16 1 -19
v 16 5 -19
v 16 6 -19
v 16 7 -19
v 18 1 -19
v 18 3 -19
v 19 3 -19
v 19 4 -19
v 19 5 -19
v 19 6 -19
v 19 8 -19
v 20 0 -19
v 20 4 -19
v 20 5 -19
v 20 8 -19
v -20 0 -20
v -20 3 -20
v -20 4 -20
v -20 7 -20
v -19 0 -20
v -19 3 -20
v -19 4 -20
v -19 5 -20
v -18 0 -20
v -18 1 -20
v -18 3 -20
v -18 4 -20
v -18 7 -20
v -18 8 -20
v -17 3 -20
v -17 4 -20
v -17 5 -20
v -17 6 -20
v -16 3 -20
v -16 4 -20
v -16 8 -20
v -16 9 -20
v -15 9 -20
v -15 10 -20
v -14 3 -20
v -14 5 -20
v -14 6 -20
v -14 7 -20
v -14 10 -20
v -13 3 -20
v -13 4 -20
v -13 5 -20
v -13 6 -20
v -12 0 -20
v -12 1 -20
v -12 4 -20
v -12 5 -20
v -12 7 -20
v -12 8 -20
v -11 5 -20
v -11 6 -20
v -9 2 -20
v -9 3 -20
v -8 6 -20
v -8 8 -20
v -7 1 -20
v -7 2 -20
v -7 3 -20
v -7 4 -20
v -6 1 -20
v -6 2 -20
v -6 4 -20
v -6 6 -20
v -6 7 -20
v -5 2 -20
v -5 3 -20
v -4 3 -20
v -4 4 -20
v -4 6 -20
v -4 7 -20
v -4 8 -20
v -3 3 -20
v -3 4 -20
v -3 5 -20
v -3 7 -20
v -3 8 -20
v -2 3 -20
v -2 4 -20
v -2 5 -20
v -2 6 -20
v -2 8 -20
v -2 9 -20
v -1 6 -20
v -1 7 -20
v 0 6 -20
v 0 7 -20
v 0 8 -20
v 0 9 -20
v 1 6 -20
v 1 7 -20
v 2 6 -20
v 2 7 -20
v 3 0 -20
v 3 1 -20
v 3 6 -20
v 3 7 -20
v 3 9 -20
v 4 1 -20
v 4 2 -20
v 4 6 -20
v 4 7 -20
v 4 9 -20
v 4 10 -20
v 5 7 -20
v 5 8 -20
v 6 3 -20
v 6 4 -20
v 6 8 -20
v 6 9 -20
v 7 2 -20
v 7 3 -20
v 7 4 -20
v 7 8 -20
v 7 9 -20
v 8 0 -20
v 8 1 -20
v 8 3 -20
v 8 4 -20
v 8 7 -20
v 8 8 -20
v 8 10 -20
v 9 2 -20
v 9 4 -20
v 9 6 -20
v 9 7 -20
v 10 1 -20
v 10 2 -20
v 10 6 -20
v 10 7 -20
v 12 5 -20
v 12 7 -20
v 12 8 -20
v 13 3 -20
v 13 4 -20
v 14 3 -20
v 14 4 -20
v 15 6 -20
v 15 7 -20
v 15 8 -20
v 16 0 -20
v 16 1 -20
v 16 5 -20
v 16 6 -20
v 16 7 -20
v 18 1 -20
v 18 3 -20
v 19 3 -20
v 19 4 -20
v 19 5 -20
v 19 6 -20
v 19 8 -20
v 20 0 -20
v 20 4 -20
v 20 5 -20
v 20 8 -20
v -20 0 -19
v -19 0 -19
v -18 0 -19
v -12 0 -19
v 3 0 -19
v 8 0 -19
v 16 0 -19
v 20 0 -19
v -20 0 -20
v -19 0 -20
v -18 0 -20
v -12 0 -20
v 3 0 -20
v 8 0 -20
v 16 0 -20
v 20 0 -20
v -8 6 -19
v -6 6 -19
v 1 6 -19
v 2 6 -19
v 9 6 -19
v 10 6 -19
v 16 6 -19
v 19 6 -19
v -8 6 -20
v -6 6 -20
v 1 6 -20
v 2 6 -20
v 9 6 -20
v 10 6 -20
v 16 6 -20
v 19 6 -20
v -20 7 -19
v -18 7 -19
v -14 7 -19
v -12 7 -19
v -6 7 -19
v -4 7 -19
v 0 7 -19
v 1 7 -19
v 2 7 -19
v 3 7 -19
v 8 7 -19
v 9 7 -19
v 10 7 -19
v 12 7 -19
v 15 7 -19
v 16 7 -19
v -20 7 -20
v -18 7 -20
v -14 7 -20
v -12 7 -20
v -6 7 -20
v -4 7 -20
v 0 7 -20
v 1 7 -20
v 2 7 -20
v 3 7 -20
v 8 7 -20
v 9 7 -20
v 10 7 -20
v 12 7 -20
v 15 7 -20
v 16 7 -20
v -18 8 -19
v -16 8 -19
v -12 8 -19
v -8 8 -19
v -4 8 -19
v -3 8 -19
v -2 8 -19
v 12 8 -19
v 15 8 -19
v 19 8 -19
v 20 8 -19
v -18 8 -20
v -16 8 -20
v -12 8 -20
v -8 8 -20
v -4 8 -20
v -3 8 -20
v -2 8 -20
v 12 8 -20
v 15 8 -20
v 19 8 -20
v 20 8 -20
v -16 9 -19
v -15 9 -19
v -2 9 -19
v 0 9 -19
v 3 9 -19
v 4 9 -19
v -16 9 -20
v -15 9 -20
v -2 9 -20
v 0 9 -20
v 3 9 -20
v 4 9 -20
v -15 10 -19
v -14 10 -19
v 4 10 -19
v 8 10 -19
v -15 10 -20
v -14 10 -20
v 4 10 -20
v 8 10 -20

# faces
f 3/2/1 2/2/1 1/2/1
f 4/2/1 2/2/1 3/2/1
f 5/3/1 4/3/1 3/3/1
f 6/3/1 4/3/1 5/3/1
f 7/2/1 6/2/1 5/2/1
f 8/2/1 6/2/1 7/2/1
f 11/2/1 10/2/1 9/2/1
f 12/2/1 10/2/1 11/2/1
f 15/2/1 14/2/1 13/2/1
f 16/2/1 14/2/1 15/2/1
f 19/2/1 18/2/1 17/2/1
f 20/2/1 18/2/1 19/2/1
f 23/3/1 22/3/1 21/3/1
f 24/3/1 22/3/1 23/3/1
f 27/3/1 26/3/1 25/3/1
f 28/3/1 26/3/1 27/3/1
f 31/3/1 30/3/1 29/3/1
f 32/3/1 30/3/1 31/3/1
f 35/3/1 34/3/1 33/3/1
f 36/3/1 34/3/1 35/3/1
f 39/3/1 38/3/1 37/3/1
f 40/3/1 38/3/1 39/3/1
f 43/2/1 42/2/1 41/2/1
f 44/2/1 42/2/1 43/2/1
f 47/2/1 46/2/1 45/2/1
f 48/2/1 46/2/1 47/2/1
f 51/3/1 50/3/1 49/3/1
f 52/3/1 50/3/1 51/3/1
f 55/3/1 54/3/1 53/3/1
f 56/3/1 54/3/1 55/3/1
f 59/2/1 58/2/1 57/2/1
f 60/2/1 58/2/1 59/2/1
f 61/2/2 62/2/2 63/2/2
f 63/2/2 62/2/2 64/2/2
f 65/3/2 66/3/2 67/3/2
f 67/3/2 66/3/2 68/3/2
f 69/2/2 70/2/2 71/2/2
f 71/2/2 70/2/2 72/2/2
f 71/3/2 72/3/2 73/3/2
f 73/3/2 72/3/2 74/3/2
f 75/3/2 76/3/2 77/3/2
f 77/3/2 76/3/2 78/3/2
f 79/3/2 80/3/2 81/3/2
f 81/3/2 80/3/2 82/3/2
f 81/2/2 82/2/2 83/2/2
f 83/2/2 82/2/2 84/2/2
f 85/3/2 86/3/2 87/3/2
f 87/3/2 86/3/2 88/3/2
f 89/3/2 90/3/2 91/3/2
f 91/3/2 90/3/2 92/3/2
f 93/3/2 94/3/2 95/3/2
f 95/3/2 94/3/2 96/3/2
f 97/2/2 98/2/2 99/2/2
f 99/2/2 98/2/2 100/2/2
f 99/3/2 100/3/2 101/3/2
f 101/3/2 100/3/2 102/3/2
f 101/2/2 102/2/2 103/2/2
f 103/2/2 102/2/2 104/2/2
f 109/2/3 106/2/3 105/2/3
f 110/3/3 107/3/3 106/3/3
f 110/2/3 106/2/3 109/2/3
f 111/2/3 108/2/3 107/2/3
f 111/3/3 107/3/3 110/3/3
f 112/2/3 108/2/3 111/2/3
f 113/3/3 110/3/3 109/3/3
f 114/3/3 110/3/3 113/3/3
f 115/2/3 111/2/3 110/2/3
f 115/3/3 110/3/3 114/3/3
f 116/3/3 112/3/3 111/3/3
f 116/2/3 111/2/3 115/2/3
f 117/2/3 108/2/3 112/2/3
f 119/3/3 115/3/3 114/3/3
f 119/3/3 116/3/3 115/3/3
f 120/3/3 112/3/3 116/3/3
f 120/3/3 116/3/3 119/3/3
f 121/2/3 118/2/3 117/2/3
f 121/3/3 112/3/3 120/3/3
f 121/2/3 117/2/3 112/2/3
f 122/2/3 118/2/3 121/2/3
f 123/3/3 119/3/3 114/3/3
f 123/1/3 120/1/3 119/1/3
f 124/3/3 122/3/3 121/3/3
f 124/1/3 120/1/3 123/1/3
f 124/3/3 121/3/3 120/3/3
f 125/2/3 118/2/3 122/2/3
f 127/2/3 126/2/3 125/2/3
f 129/3/3 123/3/3 114/3/3
f 129/3/3 124/3/3 123/3/3
f 130/3/3 122/3/3 124/3/3
f 130/3/3 124/3/3 129/3/3
f 131/2/3 128/2/3 127/2/3
f 131/3/3 122/3/3 130/3/3
f 131/2/3 127/2/3 125/2/3
f 131/2/3 125/2/3 122/2/3
f 132/2/3 128/2/3 131/2/3
f 133/2/3 128/2/3 132/2/3
f 134/3/3 129/3/3 114/3/3
f 134/2/3 130/2/3 129/2/3
f 135/2/3 130/2/3 134/2/3
f 136/3/3 132/3/3 131/3/3
f 136/2/3 130/2/3 135/2/3
f 136/3/3 131/3/3 130/3/3
f 137/3/3 132/3/3 136/3/3
f 138/2/3 114/2/3 113/2/3
f 139/3/3 135/3/3 134/3/3
f 139/2/3 114/2/3 138/2/3
f 139/3/3 134/3/3 114/3/3
f 140/1/3 136/1/3 135/1/3
f 140/3/3 135/3/3 139/3/3
f 141/2/3 137/2/3 136/2/3
f 141/1/3 136/1/3 140/1/3
f 142/3/3 132/3/3 137/3/3
f 144/2/3 137/2/3 141/2/3
f 144/3/3 140/3/3 139/3/3
f 144/3/3 139/3/3 138/3/3
f 144/3/3 141/3/3 140/3/3
f 145/3/3 143/3/3 142/3/3
f 145/2/3 137/2/3 144/2/3
f 145/3/3 142/3/3 137/3/3
f 146/3/3 144/3/3 138/3/3
f 146/3/3 145/3/3 144/3/3
f 147/3/3 145/3/3 146/3/3
f 148/3/3 143/3/3 145/3/3
f 148/3/3 145/3/3 147/3/3
f 149/3/3 143/3/3 148/3/3
f 150/3/3 146/3/3 138/3/3
f 151/2/3 147/2/3 146/2/3
f 151/3/3 146/3/3 150/3/3
f 152/3/3 148/3/3 147/3/3
f 152/2/3 147/2/3 151/2/3
f 153/3/3 148/3/3 152/3/3
f 154/3/3 150/3/3 138/3/3
f 154/2/3 151/2/3 150/2/3
f 154/2/3 153/2/3 152/2/3
f 154/2/3 152/2/3 151/2/3
f 155/2/3 153/2/3 154/2/3
f 156/3/3 148/3/3 153/3/3
f 156/2/3 153/2/3 155/2/3
f 157/3/3 148/3/3 156/3/3
f 159/3/3 155/3/3 154/3/3
f 159/2/3 156/2/3 155/2/3
f 159/2/3 157/2/3 156/2/3
f 160/2/3 157/2/3 159/2/3
f 161/3/3 160/3/3 159/3/3
f 161/2/3 157/2/3 160/2/3
f 162/2/3 157/2/3 161/2/3
f 163/3/3 158/3/3 157/3/3
f 163/2/3 157/2/3 162/2/3
f 164/3/3 158/3/3 163/3/3
f 166/3/3 162/3/3 161/3/3
f 166/3/3 161/3/3 159/3/3
f 167/2/3 164/2/3 163/2/3
f 167/3/3 162/3/3 166/3/3
f 167/2/3 163/2/3 162/2/3
f 168/2/3 164/2/3 167/2/3
f 169/3/3 165/3/3 164/3/3
f 169/2/3 164/2/3 168/2/3
f 170/3/3 165/3/3 169/3/3
f 171/3/3 166/3/3 159/3/3
f 171/1/3 167/1/3 166/1/3
f 172/3/3 168/3/3 167/3/3
f 172/1/3 167/1/3 171/1/3
f 173/2/3 170/2/3 169/2/3
f 173/3/3 168/3/3 172/3/3
f 173/2/3 169/2/3 168/2/3
f 174/2/3 170/2/3 173/2/3
f 175/2/3 170/2/3 174/2/3
f 177/2/3 175/2/3 174/2/3
f 177/3/3 174/3/3 173/3/3
f 177/3/3 173/3/3 172/3/3
f 177/3/3 172/3/3 171/3/3
f 178/2/3 175/2/3 177/2/3
f 179/3/3 177/3/3 171/3/3
f 179/1/3 178/1/3 177/1/3
f 180/2/3 175/2/3 178/2/3
f 180/1/3 178/1/3 179/1/3
f 181/3/3 176/3/3 175/3/3
f 181/2/3 175/2/3 180/2/3
f 182/3/3 176/3/3 181/3/3
f 183/3/3 180/3/3 179/3/3
f 183/3/3 179/3/3 171/3/3
f 184/3/3 180/3/3 183/3/3
f 185/3/3 183/3/3 171/3/3
f 187/3/3 171/3/3 159/3/3
f 187/3/3 186/3/3 185/3/3
f 187/3/3 185/3/3 171/3/3
f 187/3/3 154/3/3 138/3/3
f 187/3/3 159/3/3 154/3/3
f 188/3/3 186/3/3 187/3/3
f 189/3/3 186/3/3 188/3/3
f 190/3/3 186/3/3 189/3/3
f 192/2/3 188/2/3 187/2/3
f 192/3/3 189/3/3 188/3/3
f 193/3/3 189/3/3 192/3/3
f 194/2/3 190/2/3 189/2/3
f 194/3/3 189/3/3 193/3/3
f 194/2/3 191/2/3 190/2/3
f 195/2/3 191/2/3 194/2/3
f 196/2/3 191/2/3 195/2/3
f 198/2/3 196/2/3 195/2/3
f 198/2/3 197/2/3 196/2/3
f 198/3/3 195/3/3 194/3/3
f 198/3/3 194/3/3 193/3/3
f 199/2/3 197/2/3 198/2/3
f 200/3/3 198/3/3 193/3/3
f 200/3/3 199/3/3 198/3/3
f 201/3/3 199/3/3 200/3/3
f 202/2/3 197/2/3 199/2/3
f 202/3/3 199/3/3 201/3/3
f 203/2/3 197/2/3 202/2/3
f 204/2/3 193/2/3 192/2/3
f 204/3/3 200/3/3 193/3/3
f 205/1/3 201/1/3 200/1/3
f 205/3/3 200/3/3 204/3/3
f 206/3/3 202/3/3 201/3/3
f 206/1/3 201/1/3 205/1/3
f 207/1/3 203/1/3 202/1/3
f 207/3/3 202/3/3 206/3/3
f 208/2/3 197/2/3 203/2/3
f 208/1/3 203/1/3 207/1/3
f 209/2/3 192/2/3 187/2/3
f 209/2/3 204/2/3 192/2/3
f 209/2/3 205/2/3 204/2/3
f 210/2/3 205/2/3 209/2/3
f 211/3/3 207/3/3 206/3/3
f 211/2/3 205/2/3 210/2/3
f 211/3/3 206/3/3 205/3/3
f 212/3/3 207/3/3 211/3/3
f 213/3/3 207/3/3 212/3/3
f 214/2/3 208/2/3 207/2/3
f 214/3/3 207/3/3 213/3/3
f 215/2/3 197/2/3 208/2/3
f 215/2/3 208/2/3 214/2/3
f 216/2/3 211/2/3 210/2/3
f 216/2/3 212/2/3 211/2/3
f 217/3/3 213/3/3 212/3/3
f 217/2/3 212/2/3 216/2/3
f 218/3/3 213/3/3 217/3/3
f 219/3/3 213/3/3 218/3/3
f 220/3/3 210/3/3 209/3/3
f 220/2/3 216/2/3 210/2/3
f 221/3/3 218/3/3 217/3/3
f 221/2/3 216/2/3 220/2/3
f 221/3/3 217/3/3 216/3/3
f 222/3/3 218/3/3 221/3/3
f 224/3/3 221/3/3 220/3/3
f 224/3/3 223/3/3 222/3/3
f 224/3/3 222/3/3 221/3/3
f 225/3/3 223/3/3 224/3/3
f 227/3/3 224/3/3 220/3/3
f 228/3/3 224/3/3 227/3/3
f 229/3/3 227/3/3 220/3/3
f 229/1/3 228/1/3 227/1/3
f 230/3/3 224/3/3 228/3/3
f 230/1/3 228/1/3 229/1/3
f 231/2/3 225/2/3 224/2/3
f 232/3/3 226/3/3 225/3/3
f 232/2/3 225/2/3 231/2/3
f 233/3/3 226/3/3 232/3/3
f 234/3/3 220/3/3 209/3/3
f 234/3/3 229/3/3 220/3/3
f 234/3/3 230/3/3 229/3/3
f 235/3/3 230/3/3 234/3/3
f 236/3/3 224/3/3 230/3/3
f 236/3/3 230/3/3 235/3/3
f 236/2/3 231/2/3 224/2/3
f 237/3/3 232/3/3 231/3/3
f 237/2/3 231/2/3 236/2/3
f 238/3/3 232/3/3 237/3/3
f 239/2/3 235/2/3 234/2/3
f 239/3/3 236/3/3 235/3/3
f 239/3/3 237/3/3 236/3/3
f 240/3/3 237/3/3 239/3/3
f 241/2/3 240/2/3 239/2/3
f 241/3/3 237/3/3 240/3/3
f 242/3/3 237/3/3 241/3/3
f 243/3/3 237/3/3 242/3/3
f 244/3/3 237/3/3 243/3/3
f 246/2/3 239/2/3 234/2/3
f 246/2/3 241/2/3 239/2/3
f 246/2/3 242/2/3 241/2/3
f 247/3/3 243/3/3 242/3/3
f 247/2/3 242/2/3 246/2/3
f 248/2/3 244/2/3 243/2/3
f 248/3/3 243/3/3 247/3/3
f 248/2/3 245/2/3 244/2/3
f 249/2/3 245/2/3 248/2/3
f 250/2/4 251/2/4 254/2/4
f 251/3/4 252/3/4 255/3/4
f 254/2/4 251/2/4 255/2/4
f 252/2/4 253/2/4 256/2/4
f 255/3/4 252/3/4 256/3/4
f 256/2/4 253/2/4 257/2/4
f 254/3/4 255/3/4 258/3/4
f 258/3/4 255/3/4 259/3/4
f 255/2/4 256/2/4 260/2/4
f 259/3/4 255/3/4 260/3/4
f 256/3/4 257/3/4 261/3/4
f 260/2/4 256/2/4 261/2/4
f 257/2/4 253/2/4 262/2/4
f 259/3/4 260/3/4 264/3/4
f 260/3/4 261/3/4 264/3/4
f 261/3/4 257/3/4 265/3/4
f 264/3/4 261/3/4 265/3/4
f 262/2/4 263/2/4 266/2/4
f 265/3/4 257/3/4 266/3/4
f 257/2/4 262/2/4 266/2/4
f 266/2/4 263/2/4 267/2/4
f 259/3/4 264/3/4 268/3/4
f 264/1/4 265/1/4 268/1/4
f 266/3/4 267/3/4 269/3/4
f 268/1/4 265/1/4 269/1/4
f 265/3/4 266/3/4 269/3/4
f 267/2/4 263/2/4 270/2/4
f 270/2/4 271/2/4 272/2/4
f 259/3/4 268/3/4 274/3/4
f 268/3/4 269/3/4 274/3/4
f 269/3/4 267/3/4 275/3/4
f 274/3/4 269/3/4 275/3/4
f 272/2/4 273/2/4 276/2/4
f 275/3/4 267/3/4 276/3/4
f 270/2/4 272/2/4 276/2/4
f 267/2/4 270/2/4 276/2/4
f 276/2/4 273/2/4 277/2/4
f 277/2/4 273/2/4 278/2/4
f 259/3/4 274/3/4 279/3/4
f 274/2/4 275/2/4 279/2/4
f 279/2/4 275/2/4 280/2/4
f 276/3/4 277/3/4 281/3/4
f 280/2/4 275/2/4 281/2/4
f 275/3/4 276/3/4 281/3/4
f 281/3/4 277/3/4 282/3/4
f 258/2/4 259/2/4 283/2/4
f 279/3/4 280/3/4 284/3/4
f 283/2/4 259/2/4 284/2/4
f 259/3/4 279/3/4 284/3/4
f 280/1/4 281/1/4 285/1/4
f 284/3/4 280/3/4 285/3/4
f 281/2/4 282/2/4 286/2/4
f 285/1/4 281/1/4 286/1/4
f 282/3/4 277/3/4 287/3/4
f 286/2/4 282/2/4 289/2/4
f 284/3/4 285/3/4 289/3/4
f 283/3/4 284/3/4 289/3/4
f 285/3/4 286/3/4 289/3/4
f 287/3/4 288/3/4 290/3/4
f 289/2/4 282/2/4 290/2/4
f 282/3/4 287/3/4 290/3/4
f 283/3/4 289/3/4 291/3/4
f 289/3/4 290/3/4 291/3/4
f 291/3/4 290/3/4 292/3/4
f 290/3/4 288/3/4 293/3/4
f 292/3/4 290/3/4 293/3/4
f 293/3/4 288/3/4 294/3/4
f 283/3/4 291/3/4 295/3/4
f 291/2/4 292/2/4 296/2/4
f 295/3/4 291/3/4 296/3/4
f 292/3/4 293/3/4 297/3/4
f 296/2/4 292/2/4 297/2/4
f 297/3/4 293/3/4 298/3/4
f 283/3/4 295/3/4 299/3/4
f 295/2/4 296/2/4 299/2/4
f 297/2/4 298/2/4 299/2/4
f 296/2/4 297/2/4 299/2/4
f 299/2/4 298/2/4 300/2/4
f 298/3/4 293/3/4 301/3/4
f 300/2/4 298/2/4 301/2/4
f 301/3/4 293/3/4 302/3/4
f 299/3/4 300/3/4 304/3/4
f 300/2/4 301/2/4 304/2/4
f 301/2/4 302/2/4 304/2/4
f 304/2/4 302/2/4 305/2/4
f 304/3/4 305/3/4 306/3/4
f 305/2/4 302/2/4 306/2/4
f 306/2/4 302/2/4 307/2/4
f 302/3/4 303/3/4 308/3/4
f 307/2/4 302/2/4 308/2/4
f 308/3/4 303/3/4 309/3/4
f 306/3/4 307/3/4 311/3/4
f 304/3/4 306/3/4 311/3/4
f 308/2/4 309/2/4 312/2/4
f 311/3/4 307/3/4 312/3/4
f 307/2/4 308/2/4 312/2/4
f 312/2/4 309/2/4 313/2/4
f 309/3/4 310/3/4 314/3/4
f 313/2/4 309/2/4 314/2/4
f 314/3/4 310/3/4 315/3/4
f 304/3/4 311/3/4 316/3/4
f 311/1/4 312/1/4 316/1/4
f 312/3/4 313/3/4 317/3/4
f 316/1/4 312/1/4 317/1/4
f 314/2/4 315/2/4 318/2/4
f 317/3/4 313/3/4 318/3/4
f 313/2/4 314/2/4 318/2/4
f 318/2/4 315/2/4 319/2/4
f 319/2/4 315/2/4 320/2/4
f 319/2/4 320/2/4 322/2/4
f 318/3/4 319/3/4 322/3/4
f 317/3/4 318/3/4 322/3/4
f 316/3/4 317/3/4 322/3/4
f 322/2/4 320/2/4 323/2/4
f 316/3/4 322/3/4 324/3/4
f 322/1/4 323/1/4 324/1/4
f 323/2/4 320/2/4 325/2/4
f 324/1/4 323/1/4 325/1/4
f 320/3/4 321/3/4 326/3/4
f 325/2/4 320/2/4 326/2/4
f 326/3/4 321/3/4 327/3/4
f 324/3/4 325/3/4 328/3/4
f 316/3/4 324/3/4 328/3/4
f 328/3/4 325/3/4 329/3/4
f 316/3/4 328/3/4 330/3/4
f 304/3/4 316/3/4 332/3/4
f 330/3/4 331/3/4 332/3/4
f 316/3/4 330/3/4 332/3/4
f 283/3/4 299/3/4 332/3/4
f 299/3/4 304/3/4 332/3/4
f 332/3/4 331/3/4 333/3/4
f 333/3/4 331/3/4 334/3/4
f 334/3/4 331/3/4 335/3/4
f 332/2/4 333/2/4 337/2/4
f 333/3/4 334/3/4 337/3/4
f 337/3/4 334/3/4 338/3/4
f 334/2/4 335/2/4 339/2/4
f 338/3/4 334/3/4 339/3/4
f 335/2/4 336/2/4 339/2/4
f 339/2/4 336/2/4 340/2/4
f 340/2/4 336/2/4 341/2/4
f 340/2/4 341/2/4 343/2/4
f 341/2/4 342/2/4 343/2/4
f 339/3/4 340/3/4 343/3/4
f 338/3/4 339/3/4 343/3/4
f 343/2/4 342/2/4 344/2/4
f 338/3/4 343/3/4 345/3/4
f 343/3/4 344/3/4 345/3/4
f 345/3/4 344/3/4 346/3/4
f 344/2/4 342/2/4 347/2/4
f 346/3/4 344/3/4 347/3/4
f 347/2/4 342/2/4 348/2/4
f 337/2/4 338/2/4 349/2/4
f 338/3/4 345/3/4 349/3/4
f 345/1/4 346/1/4 350/1/4
f 349/3/4 345/3/4 350/3/4
f 346/3/4 347/3/4 351/3/4
f 350/1/4 346/1/4 351/1/4
f 347/1/4 348/1/4 352/1/4
f 351/3/4 347/3/4 352/3/4
f 348/2/4 342/2/4 353/2/4
f 352/1/4 348/1/4 353/1/4
f 332/2/4 337/2/4 354/2/4
f 337/2/4 349/2/4 354/2/4
f 349/2/4 350/2/4 354/2/4
f 354/2/4 350/2/4 355/2/4
f 351/3/4 352/3/4 356/3/4
f 355/2/4 350/2/4 356/2/4
f 350/3/4 351/3/4 356/3/4
f 356/3/4 352/3/4 357/3/4
f 357/3/4 352/3/4 358/3/4
f 352/2/4 353/2/4 359/2/4
f 358/3/4 352/3/4 359/3/4
f 353/2/4 342/2/4 360/2/4
f 359/2/4 353/2/4 360/2/4
f 355/2/4 356/2/4 361/2/4
f 356/2/4 357/2/4 361/2/4
f 357/3/4 358/3/4 362/3/4
f 361/2/4 357/2/4 362/2/4
f 362/3/4 358/3/4 363/3/4
f 363/3/4 358/3/4 364/3/4
f 354/3/4 355/3/4 365/3/4
f 355/2/4 361/2/4 365/2/4
f 362/3/4 363/3/4 366/3/4
f 365/2/4 361/2/4 366/2/4
f 361/3/4 362/3/4 366/3/4
f 366/3/4 363/3/4 367/3/4
f 365/3/4 366/3/4 369/3/4
f 367/3/4 368/3/4 369/3/4
f 366/3/4 367/3/4 369/3/4
f 369/3/4 368/3/4 370/3/4
f 365/3/4 369/3/4 372/3/4
f 372/3/4 369/3/4 373/3/4
f 365/3/4 372/3/4 374/3/4
f 372/1/4 373/1/4 374/1/4
f 373/3/4 369/3/4 375/3/4
f 374/1/4 373/1/4 375/1/4
f 369/2/4 370/2/4 376/2/4
f 370/3/4 371/3/4 377/3/4
f 376/2/4 370/2/4 377/2/4
f 377/3/4 371/3/4 378/3/4
f 354/3/4 365/3/4 379/3/4
f 365/3/4 374/3/4 379/3/4
f 374/3/4 375/3/4 379/3/4
f 379/3/4 375/3/4 380/3/4
f 375/3/4 369/3/4 381/3/4
f 380/3/4 375/3/4 381/3/4
f 369/2/4 376/2/4 381/2/4
f 376/3/4 377/3/4 382/3/4
f 381/2/4 376/2/4 382/2/4
f 382/3/4 377/3/4 383/3/4
f 379/2/4 380/2/4 384/2/4
f 380/3/4 381/3/4 384/3/4
f 381/3/4 382/3/4 384/3/4
f 384/3/4 382/3/4 385/3/4
f 384/2/4 385/2/4 386/2/4
f 385/3/4 382/3/4 386/3/4
f 386/3/4 382/3/4 387/3/4
f 387/3/4 382/3/4 388/3/4
f 388/3/4 382/3/4 389/3/4
f 379/2/4 384/2/4 391/2/4
f 384/2/4 386/2/4 391/2/4
f 386/2/4 387/2/4 391/2/4
f 387/3/4 388/3/4 392/3/4
f 391/2/4 387/2/4 392/2/4
f 388/2/4 389/2/4 393/2/4
f 392/3/4 388/3/4 393/3/4
f 389/2/4 390/2/4 393/2/4
f 393/2/4 390/2/4 394/2/4
f 403/2/5 396/2/5 395/2/5
f 404/3/5 397/3/5 396/3/5
f 404/2/5 396/2/5 403/2/5
f 405/2/5 398/2/5 397/2/5
f 405/3/5 397/3/5 404/3/5
f 406/3/5 399/3/5 398/3/5
f 406/2/5 398/2/5 405/2/5
f 407/2/5 400/2/5 399/2/5
f 407/3/5 399/3/5 406/3/5
f 408/3/5 401/3/5 400/3/5
f 408/2/5 400/2/5 407/2/5
f 409/2/5 402/2/5 401/2/5
f 409/3/5 401/3/5 408/3/5
f 410/2/5 402/2/5 409/2/5
f 411/3/6 412/3/6 419/3/6
f 419/3/6 412/3/6 420/3/6
f 413/3/6 414/3/6 421/3/6
f 421/3/6 414/3/6 422/3/6
f 415/3/6 416/3/6 423/3/6
f 423/3/6 416/3/6 424/3/6
f 417/3/6 418/3/6 425/3/6
f 425/3/6 418/3/6 426/3/6
f 427/2/6 428/2/6 443/2/6
f 443/2/6 428/2/6 444/2/6
f 429/3/6 430/3/6 445/3/6
f 445/3/6 430/3/6 446/3/6
f 431/3/6 432/3/6 447/3/6
f 447/3/6 432/3/6 448/3/6
f 433/3/6 434/3/6 449/3/6
f 449/3/6 434/3/6 450/3/6
f 435/3/6 436/3/6 451/3/6
f 451/3/6 436/3/6 452/3/6
f 437/3/6 438/3/6 453/3/6
f 453/3/6 438/3/6 454/3/6
f 439/3/6 440/3/6 455/3/6
f 455/3/6 440/3/6 456/3/6
f 441/3/6 442/3/6 457/3/6
f 457/3/6 442/3/6 458/3/6
f 459/2/6 460/2/6 470/2/6
f 470/2/6 460/2/6 471/2/6
f 461/3/6 462/3/6 472/3/6
f 472/3/6 462/3/6 473/3/6
f 463/3/6 464/3/6 474/3/6
f 464/2/6 465/2/6 475/2/6
f 474/3/6 464/3/6 475/3/6
f 475/2/6 465/2/6 476/2/6
f 466/3/6 467/3/6 477/3/6
f 477/3/6 467/3/6 478/3/6
f 468/2/6 469/2/6 479/2/6
f 479/2/6 469/2/6 480/2/6
f 481/2/6 482/2/6 487/2/6
f 487/2/6 482/2/6 488/2/6
f 483/3/6 484/3/6 489/3/6
f 489/3/6 484/3/6 490/3/6
f 485/2/6 486/2/6 491/2/6
f 491/2/6 486/2/6 492/2/6
f 493/2/6 494/2/6 497/2/6
f 497/2/6 494/2/6 498/2/6
f 495/2/6 496/2/6 499/2/6
f 499/2/6 496/2/6 500/2/6
