# MagicaVoxel @ Ephtracy

# group
g fruit_painting

# material
mtllib fruit_painting.mtl
usemtl palette

# normals
vn -1 0 0
vn 1 0 0
vn 0 0 1
vn 0 0 -1
vn 0 -1 0
vn 0 1 0

# texcoords
vt 0.00976563 0.5
vt 0.853516 0.5
vt 0.865234 0.5
vt 0.869141 0.5
vt 0.904297 0.5

# verts
v -20 47 -38
v -20 47 -40
v -20 60 -38
v -20 60 -40
v -9 48 -38
v -9 48 -39
v -9 59 -38
v -9 59 -39
v -19 48 -38
v -19 48 -39
v -19 59 -38
v -19 59 -39
v -8 47 -38
v -8 47 -40
v -8 60 -38
v -8 60 -40
v -20 47 -38
v -20 60 -38
v -19 48 -38
v -19 59 -38
v -9 48 -38
v -9 59 -38
v -8 47 -38
v -8 60 -38
v -19 48 -39
v -19 59 -39
v -18 54 -39
v -18 56 -39
v -17 56 -39
v -17 57 -39
v -16 50 -39
v -16 54 -39
v -16 55 -39
v -15 49 -39
v -15 50 -39
v -15 54 -39
v -15 55 -39
v -15 57 -39
v -15 58 -39
v -14 53 -39
v -14 54 -39
v -14 56 -39
v -14 57 -39
v -14 58 -39
v -13 53 -39
v -13 54 -39
v -13 55 -39
v -13 56 -39
v -13 57 -39
v -12 54 -39
v -12 55 -39
v -12 56 -39
v -11 49 -39
v -11 50 -39
v -11 54 -39
v -11 55 -39
v -10 50 -39
v -10 54 -39
v -9 48 -39
v -9 59 -39
v -20 47 -40
v -20 60 -40
v -19 48 -40
v -19 59 -40
v -18 54 -40
v -18 56 -40
v -17 56 -40
v -17 57 -40
v -16 50 -40
v -16 54 -40
v -16 55 -40
v -15 49 -40
v -15 50 -40
v -15 54 -40
v -15 55 -40
v -15 57 -40
v -15 58 -40
v -14 53 -40
v -14 54 -40
v -14 56 -40
v -14 57 -40
v -14 58 -40
v -13 53 -40
v -13 54 -40
v -13 55 -40
v -13 56 -40
v -13 57 -40
v -12 54 -40
v -12 55 -40
v -12 56 -40
v -11 49 -40
v -11 50 -40
v -11 54 -40
v -11 55 -40
v -10 50 -40
v -10 54 -40
v -9 48 -40
v -9 59 -40
v -8 47 -40
v -8 60 -40
v -20 47 -38
v -8 47 -38
v -20 47 -40
v -8 47 -40
v -19 59 -38
v -9 59 -38
v -19 59 -39
v -9 59 -39
v -19 48 -38
v -9 48 -38
v -19 48 -39
v -9 48 -39
v -20 60 -38
v -8 60 -38
v -20 60 -40
v -8 60 -40

# faces
f 3/4/1 2/4/1 1/4/1
f 4/4/1 2/4/1 3/4/1
f 7/4/1 6/4/1 5/4/1
f 8/4/1 6/4/1 7/4/1
f 9/4/2 10/4/2 11/4/2
f 11/4/2 10/4/2 12/4/2
f 13/4/2 14/4/2 15/4/2
f 15/4/2 14/4/2 16/4/2
f 19/4/3 18/4/3 17/4/3
f 20/4/3 18/4/3 19/4/3
f 21/4/3 19/4/3 17/4/3
f 22/4/3 18/4/3 20/4/3
f 23/4/3 21/4/3 17/4/3
f 23/4/3 22/4/3 21/4/3
f 24/4/3 18/4/3 22/4/3
f 24/4/3 22/4/3 23/4/3
f 27/1/3 26/1/3 25/1/3
f 28/1/3 26/1/3 27/1/3
f 29/5/3 28/5/3 27/5/3
f 29/1/3 26/1/3 28/1/3
f 30/1/3 26/1/3 29/1/3
f 31/1/3 27/1/3 25/1/3
f 32/5/3 29/5/3 27/5/3
f 32/1/3 27/1/3 31/1/3
f 32/5/3 30/5/3 29/5/3
f 33/5/3 30/5/3 32/5/3
f 34/1/3 31/1/3 25/1/3
f 35/2/3 32/2/3 31/2/3
f 35/1/3 31/1/3 34/1/3
f 36/1/3 33/1/3 32/1/3
f 36/2/3 32/2/3 35/2/3
f 37/5/3 30/5/3 33/5/3
f 37/1/3 33/1/3 36/1/3
f 38/1/3 26/1/3 30/1/3
f 38/5/3 30/5/3 37/5/3
f 39/1/3 26/1/3 38/1/3
f 40/2/3 37/2/3 36/2/3
f 40/2/3 36/2/3 35/2/3
f 40/2/3 35/2/3 34/2/3
f 41/2/3 37/2/3 40/2/3
f 42/1/3 38/1/3 37/1/3
f 43/3/3 39/3/3 38/3/3
f 43/1/3 38/1/3 42/1/3
f 44/1/3 26/1/3 39/1/3
f 44/3/3 39/3/3 43/3/3
f 45/2/3 40/2/3 34/2/3
f 45/3/3 41/3/3 40/3/3
f 46/2/3 37/2/3 41/2/3
f 46/3/3 41/3/3 45/3/3
f 47/1/3 42/1/3 37/1/3
f 47/2/3 37/2/3 46/2/3
f 48/3/3 43/3/3 42/3/3
f 48/1/3 42/1/3 47/1/3
f 49/1/3 44/1/3 43/1/3
f 49/3/3 43/3/3 48/3/3
f 50/3/3 47/3/3 46/3/3
f 50/2/3 46/2/3 45/2/3
f 50/3/3 48/3/3 47/3/3
f 51/3/3 48/3/3 50/3/3
f 52/1/3 49/1/3 48/1/3
f 52/3/3 48/3/3 51/3/3
f 53/2/3 51/2/3 50/2/3
f 53/1/3 34/1/3 25/1/3
f 53/2/3 45/2/3 34/2/3
f 53/2/3 50/2/3 45/2/3
f 54/2/3 51/2/3 53/2/3
f 55/2/3 51/2/3 54/2/3
f 56/1/3 52/1/3 51/1/3
f 56/2/3 51/2/3 55/2/3
f 57/2/3 55/2/3 54/2/3
f 57/1/3 54/1/3 53/1/3
f 58/1/3 56/1/3 55/1/3
f 58/2/3 55/2/3 57/2/3
f 59/1/3 53/1/3 25/1/3
f 59/1/3 57/1/3 53/1/3
f 59/1/3 58/1/3 57/1/3
f 60/1/3 44/1/3 49/1/3
f 60/1/3 58/1/3 59/1/3
f 60/1/3 49/1/3 52/1/3
f 60/1/3 56/1/3 58/1/3
f 60/1/3 26/1/3 44/1/3
f 60/1/3 52/1/3 56/1/3
f 61/4/4 62/4/4 63/4/4
f 63/4/4 62/4/4 64/4/4
f 63/1/4 64/1/4 65/1/4
f 65/1/4 64/1/4 66/1/4
f 65/5/4 66/5/4 67/5/4
f 66/1/4 64/1/4 67/1/4
f 67/1/4 64/1/4 68/1/4
f 63/1/4 65/1/4 69/1/4
f 65/5/4 67/5/4 70/5/4
f 69/1/4 65/1/4 70/1/4
f 67/5/4 68/5/4 70/5/4
f 70/5/4 68/5/4 71/5/4
f 63/1/4 69/1/4 72/1/4
f 69/2/4 70/2/4 73/2/4
f 72/1/4 69/1/4 73/1/4
f 70/1/4 71/1/4 74/1/4
f 73/2/4 70/2/4 74/2/4
f 71/5/4 68/5/4 75/5/4
f 74/1/4 71/1/4 75/1/4
f 68/1/4 64/1/4 76/1/4
f 75/5/4 68/5/4 76/5/4
f 76/1/4 64/1/4 77/1/4
f 74/2/4 75/2/4 78/2/4
f 73/2/4 74/2/4 78/2/4
f 72/2/4 73/2/4 78/2/4
f 78/2/4 75/2/4 79/2/4
f 75/1/4 76/1/4 80/1/4
f 76/3/4 77/3/4 81/3/4
f 80/1/4 76/1/4 81/1/4
f 77/1/4 64/1/4 82/1/4
f 81/3/4 77/3/4 82/3/4
f 72/2/4 78/2/4 83/2/4
f 78/3/4 79/3/4 83/3/4
f 79/2/4 75/2/4 84/2/4
f 83/3/4 79/3/4 84/3/4
f 75/1/4 80/1/4 85/1/4
f 84/2/4 75/2/4 85/2/4
f 80/3/4 81/3/4 86/3/4
f 85/1/4 80/1/4 86/1/4
f 81/1/4 82/1/4 87/1/4
f 86/3/4 81/3/4 87/3/4
f 84/3/4 85/3/4 88/3/4
f 83/2/4 84/2/4 88/2/4
f 85/3/4 86/3/4 88/3/4
f 88/3/4 86/3/4 89/3/4
f 86/1/4 87/1/4 90/1/4
f 89/3/4 86/3/4 90/3/4
f 88/2/4 89/2/4 91/2/4
f 63/1/4 72/1/4 91/1/4
f 72/2/4 83/2/4 91/2/4
f 83/2/4 88/2/4 91/2/4
f 91/2/4 89/2/4 92/2/4
f 92/2/4 89/2/4 93/2/4
f 89/1/4 90/1/4 94/1/4
f 93/2/4 89/2/4 94/2/4
f 92/2/4 93/2/4 95/2/4
f 91/1/4 92/1/4 95/1/4
f 93/1/4 94/1/4 96/1/4
f 95/2/4 93/2/4 96/2/4
f 61/4/4 63/4/4 97/4/4
f 63/1/4 91/1/4 97/1/4
f 95/1/4 96/1/4 97/1/4
f 91/1/4 95/1/4 97/1/4
f 96/1/4 94/1/4 98/1/4
f 97/1/4 96/1/4 98/1/4
f 64/4/4 62/4/4 98/4/4
f 82/1/4 64/1/4 98/1/4
f 94/1/4 90/1/4 98/1/4
f 90/1/4 87/1/4 98/1/4
f 87/1/4 82/1/4 98/1/4
f 61/4/4 97/4/4 99/4/4
f 97/4/4 98/4/4 99/4/4
f 98/4/4 62/4/4 100/4/4
f 99/4/4 98/4/4 100/4/4
f 103/4/5 102/4/5 101/4/5
f 104/4/5 102/4/5 103/4/5
f 107/4/5 106/4/5 105/4/5
f 108/4/5 106/4/5 107/4/5
f 109/4/6 110/4/6 111/4/6
f 111/4/6 110/4/6 112/4/6
f 113/4/6 114/4/6 115/4/6
f 115/4/6 114/4/6 116/4/6
