# MagicaVoxel @ Ephtracy

# group
g plant_painting

# material
mtllib plant_painting.mtl
usemtl palette

# normals
vn -1 0 0
vn 1 0 0
vn 0 0 1
vn 0 0 -1
vn 0 -1 0
vn 0 1 0

# texcoords
vt 0.00195313 0.5
vt 0.0332031 0.5
vt 0.0917969 0.5
vt 0.869141 0.5
vt 0.896484 0.5
vt 0.900391 0.5
vt 0.904297 0.5
vt 0.916016 0.5
vt 0.966797 0.5
vt 0.978516 0.5

# verts
v -16 34 -37
v -16 34 -40
v -16 60 -37
v -16 60 -40
v -7 35 -37
v -7 35 -38
v -7 59 -37
v -7 59 -38
v -15 35 -37
v -15 35 -38
v -15 59 -37
v -15 59 -38
v -6 34 -37
v -6 34 -40
v -6 60 -37
v -6 60 -40
v -16 34 -37
v -16 60 -37
v -15 35 -37
v -15 59 -37
v -7 35 -37
v -7 59 -37
v -6 34 -37
v -6 60 -37
v -15 35 -38
v -15 59 -38
v -14 37 -38
v -14 42 -38
v -14 49 -38
v -14 50 -38
v -14 51 -38
v -14 52 -38
v -13 36 -38
v -13 37 -38
v -13 38 -38
v -13 40 -38
v -13 41 -38
v -13 42 -38
v -13 43 -38
v -13 44 -38
v -13 46 -38
v -13 47 -38
v -13 48 -38
v -13 49 -38
v -13 50 -38
v -13 51 -38
v -13 52 -38
v -12 38 -38
v -12 40 -38
v -12 41 -38
v -12 42 -38
v -12 43 -38
v -12 44 -38
v -12 46 -38
v -12 47 -38
v -12 48 -38
v -12 49 -38
v -12 50 -38
v -12 51 -38
v -12 52 -38
v -12 55 -38
v -12 56 -38
v -11 40 -38
v -11 41 -38
v -11 42 -38
v -11 46 -38
v -11 47 -38
v -11 48 -38
v -11 49 -38
v -11 50 -38
v -11 52 -38
v -11 55 -38
v -11 56 -38
v -10 43 -38
v -10 44 -38
v -10 46 -38
v -10 47 -38
v -10 48 -38
v -10 49 -38
v -10 50 -38
v -10 52 -38
v -10 54 -38
v -10 55 -38
v -10 56 -38
v -10 57 -38
v -10 58 -38
v -9 36 -38
v -9 37 -38
v -9 42 -38
v -9 43 -38
v -9 44 -38
v -9 46 -38
v -9 47 -38
v -9 49 -38
v -9 50 -38
v -9 54 -38
v -9 56 -38
v -9 57 -38
v -9 58 -38
v -8 37 -38
v -8 42 -38
v -8 49 -38
v -8 50 -38
v -8 56 -38
v -8 57 -38
v -7 35 -38
v -7 59 -38
v -16 34 -40
v -16 60 -40
v -6 34 -40
v -6 60 -40
v -16 34 -37
v -6 34 -37
v -16 34 -40
v -6 34 -40
v -15 59 -37
v -7 59 -37
v -15 59 -38
v -7 59 -38
v -15 35 -37
v -7 35 -37
v -15 35 -38
v -7 35 -38
v -16 60 -37
v -6 60 -37
v -16 60 -40
v -6 60 -40

# faces
f 3/4/1 2/4/1 1/4/1
f 4/4/1 2/4/1 3/4/1
f 7/4/1 6/4/1 5/4/1
f 8/4/1 6/4/1 7/4/1
f 9/4/2 10/4/2 11/4/2
f 11/4/2 10/4/2 12/4/2
f 13/4/2 14/4/2 15/4/2
f 15/4/2 14/4/2 16/4/2
f 19/4/3 18/4/3 17/4/3
f 20/4/3 18/4/3 19/4/3
f 21/4/3 19/4/3 17/4/3
f 22/4/3 18/4/3 20/4/3
f 23/4/3 21/4/3 17/4/3
f 23/4/3 22/4/3 21/4/3
f 24/4/3 18/4/3 22/4/3
f 24/4/3 22/4/3 23/4/3
f 27/2/3 26/2/3 25/2/3
f 28/2/3 26/2/3 27/2/3
f 29/2/3 26/2/3 28/2/3
f 30/2/3 26/2/3 29/2/3
f 31/2/3 26/2/3 30/2/3
f 32/2/3 26/2/3 31/2/3
f 33/2/3 27/2/3 25/2/3
f 34/9/3 28/9/3 27/9/3
f 34/2/3 27/2/3 33/2/3
f 35/9/3 28/9/3 34/9/3
f 36/9/3 28/9/3 35/9/3
f 37/9/3 28/9/3 36/9/3
f 38/2/3 29/2/3 28/2/3
f 38/9/3 28/9/3 37/9/3
f 39/2/3 29/2/3 38/2/3
f 40/2/3 29/2/3 39/2/3
f 41/2/3 29/2/3 40/2/3
f 42/2/3 29/2/3 41/2/3
f 43/2/3 29/2/3 42/2/3
f 44/5/3 30/5/3 29/5/3
f 44/2/3 29/2/3 43/2/3
f 45/2/3 31/2/3 30/2/3
f 45/5/3 30/5/3 44/5/3
f 46/8/3 32/8/3 31/8/3
f 46/2/3 31/2/3 45/2/3
f 47/2/3 26/2/3 32/2/3
f 47/8/3 32/8/3 46/8/3
f 48/9/3 34/9/3 33/9/3
f 48/9/3 35/9/3 34/9/3
f 48/10/3 36/10/3 35/10/3
f 49/1/3 37/1/3 36/1/3
f 49/10/3 36/10/3 48/10/3
f 50/9/3 38/9/3 37/9/3
f 50/1/3 37/1/3 49/1/3
f 50/9/3 39/9/3 38/9/3
f 51/9/3 39/9/3 50/9/3
f 52/2/3 40/2/3 39/2/3
f 52/9/3 39/9/3 51/9/3
f 53/9/3 41/9/3 40/9/3
f 53/2/3 40/2/3 52/2/3
f 54/2/3 42/2/3 41/2/3
f 54/9/3 41/9/3 53/9/3
f 55/7/3 43/7/3 42/7/3
f 55/2/3 42/2/3 54/2/3
f 56/5/3 44/5/3 43/5/3
f 56/7/3 43/7/3 55/7/3
f 57/2/3 45/2/3 44/2/3
f 57/5/3 44/5/3 56/5/3
f 58/8/3 46/8/3 45/8/3
f 58/2/3 45/2/3 57/2/3
f 59/2/3 47/2/3 46/2/3
f 59/8/3 46/8/3 58/8/3
f 60/2/3 26/2/3 47/2/3
f 60/2/3 47/2/3 59/2/3
f 61/2/3 26/2/3 60/2/3
f 62/2/3 26/2/3 61/2/3
f 63/9/3 49/9/3 48/9/3
f 63/10/3 50/10/3 49/10/3
f 64/1/3 51/1/3 50/1/3
f 64/10/3 50/10/3 63/10/3
f 65/9/3 54/9/3 53/9/3
f 65/1/3 51/1/3 64/1/3
f 65/9/3 53/9/3 52/9/3
f 65/9/3 52/9/3 51/9/3
f 66/5/3 55/5/3 54/5/3
f 66/9/3 54/9/3 65/9/3
f 66/5/3 56/5/3 55/5/3
f 67/5/3 56/5/3 66/5/3
f 68/8/3 57/8/3 56/8/3
f 68/5/3 56/5/3 67/5/3
f 69/7/3 59/7/3 58/7/3
f 69/8/3 57/8/3 68/8/3
f 69/7/3 58/7/3 57/7/3
f 69/7/3 60/7/3 59/7/3
f 70/7/3 60/7/3 69/7/3
f 71/2/3 61/2/3 60/2/3
f 71/7/3 60/7/3 70/7/3
f 72/3/3 62/3/3 61/3/3
f 72/2/3 61/2/3 71/2/3
f 73/2/3 26/2/3 62/2/3
f 73/3/3 62/3/3 72/3/3
f 74/9/3 64/9/3 63/9/3
f 74/9/3 65/9/3 64/9/3
f 74/9/3 66/9/3 65/9/3
f 75/9/3 66/9/3 74/9/3
f 76/6/3 67/6/3 66/6/3
f 76/9/3 66/9/3 75/9/3
f 77/8/3 68/8/3 67/8/3
f 77/6/3 67/6/3 76/6/3
f 78/2/3 69/2/3 68/2/3
f 78/8/3 68/8/3 77/8/3
f 79/3/3 70/3/3 69/3/3
f 79/2/3 69/2/3 78/2/3
f 80/2/3 71/2/3 70/2/3
f 80/3/3 70/3/3 79/3/3
f 81/7/3 72/7/3 71/7/3
f 81/2/3 71/2/3 80/2/3
f 82/7/3 72/7/3 81/7/3
f 83/2/3 73/2/3 72/2/3
f 83/7/3 72/7/3 82/7/3
f 84/2/3 26/2/3 73/2/3
f 84/2/3 73/2/3 83/2/3
f 85/2/3 26/2/3 84/2/3
f 86/2/3 26/2/3 85/2/3
f 87/2/3 33/2/3 25/2/3
f 87/9/3 48/9/3 33/9/3
f 87/9/3 63/9/3 48/9/3
f 87/9/3 74/9/3 63/9/3
f 88/9/3 74/9/3 87/9/3
f 89/9/3 74/9/3 88/9/3
f 90/2/3 75/2/3 74/2/3
f 90/9/3 74/9/3 89/9/3
f 91/9/3 76/9/3 75/9/3
f 91/2/3 75/2/3 90/2/3
f 92/2/3 77/2/3 76/2/3
f 92/9/3 76/9/3 91/9/3
f 93/6/3 79/6/3 78/6/3
f 93/2/3 77/2/3 92/2/3
f 93/6/3 78/6/3 77/6/3
f 94/2/3 82/2/3 81/2/3
f 94/6/3 79/6/3 93/6/3
f 94/2/3 80/2/3 79/2/3
f 94/2/3 81/2/3 80/2/3
f 95/2/3 82/2/3 94/2/3
f 96/7/3 83/7/3 82/7/3
f 96/2/3 82/2/3 95/2/3
f 96/7/3 84/7/3 83/7/3
f 97/2/3 85/2/3 84/2/3
f 97/7/3 84/7/3 96/7/3
f 98/3/3 86/3/3 85/3/3
f 98/2/3 85/2/3 97/2/3
f 99/2/3 26/2/3 86/2/3
f 99/3/3 86/3/3 98/3/3
f 100/9/3 89/9/3 88/9/3
f 100/2/3 88/2/3 87/2/3
f 101/2/3 93/2/3 92/2/3
f 101/9/3 89/9/3 100/9/3
f 101/2/3 92/2/3 91/2/3
f 101/2/3 94/2/3 93/2/3
f 101/2/3 90/2/3 89/2/3
f 101/2/3 91/2/3 90/2/3
f 102/6/3 95/6/3 94/6/3
f 102/2/3 94/2/3 101/2/3
f 103/2/3 97/2/3 96/2/3
f 103/6/3 95/6/3 102/6/3
f 103/2/3 96/2/3 95/2/3
f 104/7/3 98/7/3 97/7/3
f 104/2/3 97/2/3 103/2/3
f 105/2/3 99/2/3 98/2/3
f 105/7/3 98/7/3 104/7/3
f 106/2/3 103/2/3 102/2/3
f 106/2/3 102/2/3 101/2/3
f 106/2/3 105/2/3 104/2/3
f 106/2/3 87/2/3 25/2/3
f 106/2/3 104/2/3 103/2/3
f 106/2/3 100/2/3 87/2/3
f 106/2/3 101/2/3 100/2/3
f 107/2/3 26/2/3 99/2/3
f 107/2/3 105/2/3 106/2/3
f 107/2/3 99/2/3 105/2/3
f 108/4/4 109/4/4 110/4/4
f 110/4/4 109/4/4 111/4/4
f 114/4/5 113/4/5 112/4/5
f 115/4/5 113/4/5 114/4/5
f 118/4/5 117/4/5 116/4/5
f 119/4/5 117/4/5 118/4/5
f 120/4/6 121/4/6 122/4/6
f 122/4/6 121/4/6 123/4/6
f 124/4/6 125/4/6 126/4/6
f 126/4/6 125/4/6 127/4/6
