# MagicaVoxel @ Ephtracy

# group
g pooBar_fill

# material
mtllib pooBar_fill.mtl
usemtl palette

# normals
vn -1 0 0
vn 1 0 0
vn 0 0 1
vn 0 0 -1
vn 0 -1 0
vn 0 1 0

# texcoords
vt 0.396484 0.5
vt 0.994141 0.5

# verts
v -3 12 -38
v -3 12 -39
v -3 12 -40
v -3 50 -38
v -3 50 -39
v -3 50 -40
v -2 11 -38
v -2 11 -39
v -2 11 -40
v -2 12 -38
v -2 12 -39
v -2 12 -40
v 6 11 -38
v 6 11 -39
v 6 11 -40
v 6 12 -38
v 6 12 -39
v 6 12 -40
v 7 12 -38
v 7 12 -39
v 7 12 -40
v 7 50 -38
v 7 50 -39
v 7 50 -40
v -3 12 -38
v -3 50 -38
v -2 11 -38
v -2 12 -38
v 6 11 -38
v 6 12 -38
v 7 12 -38
v 7 50 -38
v -3 12 -40
v -3 50 -40
v -2 11 -40
v -2 12 -40
v 6 11 -40
v 6 12 -40
v 7 12 -40
v 7 50 -40
v -2 11 -38
v 6 11 -38
v -2 11 -39
v 6 11 -39
v -2 11 -40
v 6 11 -40
v -3 12 -38
v -2 12 -38
v 6 12 -38
v 7 12 -38
v -3 12 -39
v -2 12 -39
v 6 12 -39
v 7 12 -39
v -3 12 -40
v -2 12 -40
v 6 12 -40
v 7 12 -40
v -3 50 -38
v 7 50 -38
v -3 50 -39
v 7 50 -39
v -3 50 -40
v 7 50 -40

# faces
f 4/1/1 2/1/1 1/1/1
f 5/2/1 3/2/1 2/2/1
f 5/1/1 2/1/1 4/1/1
f 6/2/1 3/2/1 5/2/1
f 10/1/1 8/1/1 7/1/1
f 11/2/1 9/2/1 8/2/1
f 11/1/1 8/1/1 10/1/1
f 12/2/1 9/2/1 11/2/1
f 13/1/2 14/1/2 16/1/2
f 14/2/2 15/2/2 17/2/2
f 16/1/2 14/1/2 17/1/2
f 17/2/2 15/2/2 18/2/2
f 19/1/2 20/1/2 22/1/2
f 20/2/2 21/2/2 23/2/2
f 22/1/2 20/1/2 23/1/2
f 23/2/2 21/2/2 24/2/2
f 28/1/3 26/1/3 25/1/3
f 29/1/3 28/1/3 27/1/3
f 30/1/3 26/1/3 28/1/3
f 30/1/3 28/1/3 29/1/3
f 31/1/3 26/1/3 30/1/3
f 32/1/3 26/1/3 31/1/3
f 33/2/4 34/2/4 36/2/4
f 35/2/4 36/2/4 37/2/4
f 36/2/4 34/2/4 38/2/4
f 37/2/4 36/2/4 38/2/4
f 38/2/4 34/2/4 39/2/4
f 39/2/4 34/2/4 40/2/4
f 43/1/5 42/1/5 41/1/5
f 44/1/5 42/1/5 43/1/5
f 45/2/5 44/2/5 43/2/5
f 46/2/5 44/2/5 45/2/5
f 51/1/5 48/1/5 47/1/5
f 52/1/5 48/1/5 51/1/5
f 53/1/5 50/1/5 49/1/5
f 54/1/5 50/1/5 53/1/5
f 55/2/5 52/2/5 51/2/5
f 56/2/5 52/2/5 55/2/5
f 57/2/5 54/2/5 53/2/5
f 58/2/5 54/2/5 57/2/5
f 59/1/6 60/1/6 61/1/6
f 61/1/6 60/1/6 62/1/6
f 61/2/6 62/2/6 63/2/6
f 63/2/6 62/2/6 64/2/6
