# MagicaVoxel @ Ephtracy

# group
g window

# material
mtllib window.mtl
usemtl palette

# normals
vn -1 0 0
vn 1 0 0
vn 0 0 1
vn 0 0 -1
vn 0 -1 0
vn 0 1 0

# texcoords
vt 0.869141 0.5
vt 0.970703 0.5

# verts
v -14 31 -38
v -14 31 -40
v -14 55 -38
v -14 55 -40
v -5 32 -38
v -5 32 -39
v -5 42 -38
v -5 42 -39
v -5 44 -38
v -5 44 -39
v -5 54 -38
v -5 54 -39
v 6 32 -38
v 6 32 -39
v 6 42 -38
v 6 42 -39
v 6 44 -38
v 6 44 -39
v 6 54 -38
v 6 54 -39
v -13 32 -38
v -13 32 -39
v -13 42 -38
v -13 42 -39
v -13 44 -38
v -13 44 -39
v -13 54 -38
v -13 54 -39
v -2 32 -38
v -2 32 -39
v -2 42 -38
v -2 42 -39
v -2 44 -38
v -2 44 -39
v -2 54 -38
v -2 54 -39
v 7 31 -38
v 7 31 -40
v 7 55 -38
v 7 55 -40
v -14 31 -38
v -14 55 -38
v -13 32 -38
v -13 42 -38
v -13 44 -38
v -13 54 -38
v -5 32 -38
v -5 42 -38
v -5 44 -38
v -5 54 -38
v -2 32 -38
v -2 42 -38
v -2 44 -38
v -2 54 -38
v 6 32 -38
v 6 42 -38
v 6 44 -38
v 6 54 -38
v 7 31 -38
v 7 55 -38
v -13 32 -39
v -13 42 -39
v -13 44 -39
v -13 54 -39
v -5 32 -39
v -5 42 -39
v -5 44 -39
v -5 54 -39
v -2 32 -39
v -2 42 -39
v -2 44 -39
v -2 54 -39
v 6 32 -39
v 6 42 -39
v 6 44 -39
v 6 54 -39
v -14 31 -40
v -14 55 -40
v -13 32 -40
v -13 42 -40
v -13 44 -40
v -13 54 -40
v -5 32 -40
v -5 42 -40
v -5 44 -40
v -5 54 -40
v -2 32 -40
v -2 42 -40
v -2 44 -40
v -2 54 -40
v 6 32 -40
v 6 42 -40
v 6 44 -40
v 6 54 -40
v 7 31 -40
v 7 55 -40
v -14 31 -38
v 7 31 -38
v -14 31 -40
v 7 31 -40
v -13 42 -38
v -5 42 -38
v -2 42 -38
v 6 42 -38
v -13 42 -39
v -5 42 -39
v -2 42 -39
v 6 42 -39
v -13 54 -38
v -5 54 -38
v -2 54 -38
v 6 54 -38
v -13 54 -39
v -5 54 -39
v -2 54 -39
v 6 54 -39
v -13 32 -38
v -5 32 -38
v -2 32 -38
v 6 32 -38
v -13 32 -39
v -5 32 -39
v -2 32 -39
v 6 32 -39
v -13 44 -38
v -5 44 -38
v -2 44 -38
v 6 44 -38
v -13 44 -39
v -5 44 -39
v -2 44 -39
v 6 44 -39
v -14 55 -38
v 7 55 -38
v -14 55 -40
v 7 55 -40

# faces
f 3/1/1 2/1/1 1/1/1
f 4/1/1 2/1/1 3/1/1
f 7/1/1 6/1/1 5/1/1
f 8/1/1 6/1/1 7/1/1
f 11/1/1 10/1/1 9/1/1
f 12/1/1 10/1/1 11/1/1
f 15/1/1 14/1/1 13/1/1
f 16/1/1 14/1/1 15/1/1
f 19/1/1 18/1/1 17/1/1
f 20/1/1 18/1/1 19/1/1
f 21/1/2 22/1/2 23/1/2
f 23/1/2 22/1/2 24/1/2
f 25/1/2 26/1/2 27/1/2
f 27/1/2 26/1/2 28/1/2
f 29/1/2 30/1/2 31/1/2
f 31/1/2 30/1/2 32/1/2
f 33/1/2 34/1/2 35/1/2
f 35/1/2 34/1/2 36/1/2
f 37/1/2 38/1/2 39/1/2
f 39/1/2 38/1/2 40/1/2
f 43/1/3 42/1/3 41/1/3
f 44/1/3 42/1/3 43/1/3
f 45/1/3 42/1/3 44/1/3
f 46/1/3 42/1/3 45/1/3
f 47/1/3 43/1/3 41/1/3
f 48/1/3 45/1/3 44/1/3
f 49/1/3 45/1/3 48/1/3
f 50/1/3 42/1/3 46/1/3
f 51/1/3 49/1/3 48/1/3
f 51/1/3 50/1/3 49/1/3
f 51/1/3 47/1/3 41/1/3
f 51/1/3 48/1/3 47/1/3
f 52/1/3 50/1/3 51/1/3
f 53/1/3 50/1/3 52/1/3
f 54/1/3 42/1/3 50/1/3
f 54/1/3 50/1/3 53/1/3
f 55/1/3 51/1/3 41/1/3
f 56/1/3 53/1/3 52/1/3
f 57/1/3 53/1/3 56/1/3
f 58/1/3 42/1/3 54/1/3
f 59/1/3 55/1/3 41/1/3
f 59/1/3 58/1/3 57/1/3
f 59/1/3 57/1/3 56/1/3
f 59/1/3 56/1/3 55/1/3
f 60/1/3 42/1/3 58/1/3
f 60/1/3 58/1/3 59/1/3
f 65/2/3 62/2/3 61/2/3
f 66/2/3 62/2/3 65/2/3
f 67/2/3 64/2/3 63/2/3
f 68/2/3 64/2/3 67/2/3
f 73/2/3 70/2/3 69/2/3
f 74/2/3 70/2/3 73/2/3
f 75/2/3 72/2/3 71/2/3
f 76/2/3 72/2/3 75/2/3
f 77/1/4 78/1/4 79/1/4
f 79/1/4 78/1/4 80/1/4
f 80/1/4 78/1/4 81/1/4
f 81/1/4 78/1/4 82/1/4
f 77/1/4 79/1/4 83/1/4
f 79/2/4 80/2/4 83/2/4
f 80/1/4 81/1/4 84/1/4
f 83/2/4 80/2/4 84/2/4
f 81/2/4 82/2/4 85/2/4
f 84/1/4 81/1/4 85/1/4
f 82/1/4 78/1/4 86/1/4
f 85/2/4 82/2/4 86/2/4
f 84/1/4 85/1/4 87/1/4
f 83/1/4 84/1/4 87/1/4
f 85/1/4 86/1/4 87/1/4
f 77/1/4 83/1/4 87/1/4
f 87/1/4 86/1/4 88/1/4
f 88/1/4 86/1/4 89/1/4
f 86/1/4 78/1/4 90/1/4
f 89/1/4 86/1/4 90/1/4
f 77/1/4 87/1/4 91/1/4
f 87/2/4 88/2/4 91/2/4
f 88/1/4 89/1/4 92/1/4
f 91/2/4 88/2/4 92/2/4
f 89/2/4 90/2/4 93/2/4
f 92/1/4 89/1/4 93/1/4
f 90/1/4 78/1/4 94/1/4
f 93/2/4 90/2/4 94/2/4
f 77/1/4 91/1/4 95/1/4
f 92/1/4 93/1/4 95/1/4
f 93/1/4 94/1/4 95/1/4
f 91/1/4 92/1/4 95/1/4
f 94/1/4 78/1/4 96/1/4
f 95/1/4 94/1/4 96/1/4
f 99/1/5 98/1/5 97/1/5
f 100/1/5 98/1/5 99/1/5
f 105/1/5 102/1/5 101/1/5
f 106/1/5 102/1/5 105/1/5
f 107/1/5 104/1/5 103/1/5
f 108/1/5 104/1/5 107/1/5
f 113/1/5 110/1/5 109/1/5
f 114/1/5 110/1/5 113/1/5
f 115/1/5 112/1/5 111/1/5
f 116/1/5 112/1/5 115/1/5
f 117/1/6 118/1/6 121/1/6
f 121/1/6 118/1/6 122/1/6
f 119/1/6 120/1/6 123/1/6
f 123/1/6 120/1/6 124/1/6
f 125/1/6 126/1/6 129/1/6
f 129/1/6 126/1/6 130/1/6
f 127/1/6 128/1/6 131/1/6
f 131/1/6 128/1/6 132/1/6
f 133/1/6 134/1/6 135/1/6
f 135/1/6 134/1/6 136/1/6
